<?xml version="1.0" encoding="UTF-8" standalone="no"?>
<!DOCTYPE svg PUBLIC "-//W3C//DTD SVG 1.1//EN" "http://www.w3.org/Graphics/SVG/1.1/DTD/svg11.dtd">
<svg xmlns="http://www.w3.org/2000/svg" version="1.1" viewBox="0.00 0.00 259.00 226.00">
<g stroke-width="2.00" fill="none" stroke-linecap="butt">
<path stroke="#17120f" vector-effect="non-scaling-stroke" d="
  M 207.20 63.99
  Q 207.16 64.97 206.77 64.80"
/>
<path stroke="#634d37" vector-effect="non-scaling-stroke" d="
  M 206.77 64.80
  C 203.94 64.71 203.18 67.06 204.47 69.02"
/>
<path stroke="#17120f" vector-effect="non-scaling-stroke" d="
  M 204.47 69.02
  L 206.39 70.18"
/>
<path stroke="#806945" vector-effect="non-scaling-stroke" d="
  M 182.98 86.25
  L 177.71 85.63
  Q 177.19 85.57 176.69 85.77
  L 169.86 88.46
  A 0.30 0.30 0.0 0 0 169.84 89.01
  Q 179.26 93.70 187.76 99.90"
/>
<path stroke="#806945" vector-effect="non-scaling-stroke" d="
  M 174.24 153.03
  Q 167.15 150.74 164.80 144.45
  A 0.48 0.48 0.0 0 0 163.87 144.59
  C 163.11 160.51 123.99 173.20 122.52 146.31
  C 122.43 144.68 122.88 142.74 123.01 141.00
  Q 123.06 140.41 122.65 140.83
  Q 115.00 148.72 107.36 156.60
  Q 105.68 158.33 104.25 158.25
  Q 93.99 157.73 70.27 154.87"
/>
<path stroke="#17120f" vector-effect="non-scaling-stroke" d="
  M 70.27 154.87
  Q 67.97 154.01 66.69 154.54"
/>
<path stroke="#634d37" vector-effect="non-scaling-stroke" d="
  M 57.48 140.61
  Q 57.89 139.08 57.17 136.75"
/>
<path stroke="#806945" vector-effect="non-scaling-stroke" d="
  M 57.17 136.75
  L 56.95 120.02
  A 0.64 0.63 5.1 0 0 56.43 119.41
  L 51.21 118.36"
/>
<path stroke="#806945" vector-effect="non-scaling-stroke" d="
  M 72.18 59.22
  C 84.82 64.41 94.05 70.14 107.23 62.26
  Q 107.63 62.03 107.55 61.57
  C 106.08 53.20 111.37 46.34 118.19 42.37
  A 2.03 2.03 0.0 0 0 119.19 40.85
  Q 119.21 40.72 118.46 40.69"
/>
<path stroke="#775d44" vector-effect="non-scaling-stroke" d="
  M 204.47 69.02
  L 205.27 68.96"
/>
<path stroke="#7c7c7c" vector-effect="non-scaling-stroke" d="
  M 211.30 67.74
  Q 212.90 68.19 214.47 67.61"
/>
<path stroke="#7c7c7c" vector-effect="non-scaling-stroke" d="
  M 211.39 64.74
  Q 211.30 64.47 211.17 64.34
  Q 210.83 64.03 210.63 64.45
  Q 210.10 65.59 208.98 65.60
  Q 208.58 65.61 208.70 65.99
  Q 209.08 67.21 211.02 67.41"
/>
<path stroke="#775d44" vector-effect="non-scaling-stroke" d="
  M 205.38 65.77
  Q 206.94 65.94 206.77 64.80"
/>
<path stroke="#806945" vector-effect="non-scaling-stroke" d="
  M 156.45 167.50
  L 156.24 167.64
  Q 155.91 167.87 155.63 167.59
  C 152.60 164.52 146.14 160.91 142.93 165.85
  A 0.96 0.94 48.8 0 0 142.88 166.77
  L 145.11 171.23"
/>
<path stroke="#947953" vector-effect="non-scaling-stroke" d="
  M 145.11 171.23
  L 144.21 172.02"
/>
<path stroke="#806945" vector-effect="non-scaling-stroke" d="
  M 144.21 172.02
  L 142.74 172.23"
/>
<path stroke="#e0b47b" vector-effect="non-scaling-stroke" d="
  M 142.74 172.23
  Q 141.95 172.33 141.97 171.32"
/>
<path stroke="#806945" vector-effect="non-scaling-stroke" d="
  M 141.97 171.32
  C 142.98 165.60 129.01 163.84 126.68 169.29
  Q 125.12 172.95 129.00 175.55"
/>
<path stroke="#947953" vector-effect="non-scaling-stroke" d="
  M 129.00 175.55
  L 128.98 176.00"
/>
<path stroke="#947953" vector-effect="non-scaling-stroke" d="
  M 125.20 177.32
  Q 125.09 177.54 124.79 177.54
  Q 124.31 177.55 124.31 177.06
  C 124.35 172.38 121.76 169.28 117.26 168.25
  Q 114.17 167.54 112.45 167.95
  Q 103.32 170.11 94.42 167.12
  Q 93.86 166.93 94.04 166.36
  Q 95.10 163.06 93.53 160.08
  A 1.11 1.09 83.9 0 0 92.86 159.53
  Q 88.88 158.37 84.82 158.37
  C 81.70 158.37 78.19 159.81 74.83 160.32
  Q 72.34 160.69 70.69 159.84"
/>
<path stroke="#947953" vector-effect="non-scaling-stroke" d="
  M 68.91 155.78
  Q 68.96 155.61 68.99 155.45
  Q 69.07 155.11 69.40 155.04
  L 70.27 154.87"
/>
<path stroke="#e0b47b" vector-effect="non-scaling-stroke" d="
  M 57.17 136.75
  Q 56.97 137.71 56.26 137.54"
/>
<path stroke="#795f65" vector-effect="non-scaling-stroke" d="
  M 134.83 177.29
  L 132.85 179.26
  Q 132.53 179.57 132.51 180.02
  C 132.23 186.34 145.97 186.05 146.52 179.62
  Q 146.56 179.15 146.12 178.97
  L 139.72 176.27"
/>
<path stroke="#634d37" vector-effect="non-scaling-stroke" d="
  M 141.97 171.32
  L 137.15 175.69
  Q 136.76 176.04 136.26 175.92
  Q 134.79 175.59 133.53 175.91"
/>
<path stroke="#17120f" vector-effect="non-scaling-stroke" d="
  M 133.53 175.91
  L 129.00 175.55"
/>
<path stroke="#634d37" vector-effect="non-scaling-stroke" d="
  M 142.74 172.23
  L 141.27 173.73"
/>
<path stroke="#775d44" vector-effect="non-scaling-stroke" d="
  M 140.32 174.79
  Q 139.45 175.70 139.72 176.27"
/>
<path stroke="#c59a8d" vector-effect="non-scaling-stroke" d="
  M 139.72 176.27
  Q 136.58 175.79 134.83 177.29"
/>
<path stroke="#775d44" vector-effect="non-scaling-stroke" d="
  M 134.83 177.29
  L 133.64 177.30
  Q 133.22 177.31 133.24 176.88
  Q 133.26 176.42 133.53 175.91"
/>
<path stroke="#17120f" vector-effect="non-scaling-stroke" d="
  M 145.93 172.56
  Q 146.16 171.82 145.80 171.45
  Q 145.53 171.16 145.11 171.23"
/>
<path stroke="#806b5d" vector-effect="non-scaling-stroke" d="
  M 121.78 39.85
  Q 121.48 40.02 121.34 40.28
  A 0.28 0.28 0.0 0 0 121.68 40.67
  L 131.44 37.09
  Q 132.00 36.88 132.10 36.28
  L 132.66 32.73
  A 1.51 1.50 74.1 0 0 130.19 31.35
  Q 126.01 34.98 122.39 39.34
  Q 122.13 39.65 121.78 39.85"
/>
<path stroke="#806b5d" vector-effect="non-scaling-stroke" d="
  M 139.83 68.02
  L 142.23 75.33
  Q 142.38 75.78 142.76 75.50
  L 146.07 73.06
  A 0.43 0.43 0.0 0 0 145.96 72.31
  Q 142.14 70.95 140.38 67.75"
/>
<path stroke="#7f665b" vector-effect="non-scaling-stroke" d="
  M 140.38 67.75
  C 141.73 60.96 155.11 55.76 160.87 53.34
  Q 162.96 52.47 164.05 53.89
  Q 165.24 55.45 164.27 57.15
  L 160.10 64.45
  A 0.65 0.65 0.0 0 0 160.62 65.42
  Q 164.59 65.66 166.93 68.73
  Q 167.31 69.22 167.50 68.63
  Q 170.44 59.72 180.16 60.71
  Q 187.92 61.50 195.18 62.70
  A 1.11 1.10 -75.6 0 0 196.40 61.97
  C 198.17 56.83 196.86 54.66 192.16 52.23
  C 188.00 50.07 184.11 48.25 179.90 45.54
  Q 156.20 30.32 128.50 39.41
  C 118.59 42.66 108.59 48.68 108.63 60.55
  A 0.94 0.94 0.0 0 0 110.01 61.38
  C 122.10 54.95 132.90 53.74 139.83 68.02"
/>
<path stroke="#fdd0b7" vector-effect="non-scaling-stroke" d="
  M 140.38 67.75
  Q 140.14 67.70 139.83 68.02"
/>
<path stroke="#806b5d" vector-effect="non-scaling-stroke" d="
  M 189.29 47.70
  L 188.56 45.30
  Q 188.43 44.89 188.00 44.97
  L 184.51 45.62
  A 0.49 0.49 0.0 0 0 184.38 46.54
  L 190.42 49.65
  A 0.34 0.34 0.0 0 0 190.89 49.23
  Q 190.67 48.58 190.01 48.40
  Q 189.46 48.24 189.29 47.70"
/>
<path stroke="#7f665b" vector-effect="non-scaling-stroke" d="
  M 156.25 74.51
  Q 152.61 74.47 149.14 73.46
  A 1.00 0.99 -53.7 0 0 148.28 73.60
  L 143.18 77.18
  Q 142.75 77.48 142.75 78.00
  L 142.75 81.61
  Q 142.75 82.26 143.38 82.35
  L 155.35 84.21
  Q 155.80 84.28 156.20 84.07
  C 161.78 81.12 168.68 75.68 165.09 68.69
  A 0.89 0.88 -3.2 0 0 164.58 68.24
  L 159.21 66.42
  A 1.45 1.44 -65.9 0 1 158.42 64.34
  L 163.46 55.47
  A 1.00 1.00 0.0 0 0 162.23 54.04
  C 158.79 55.36 140.39 63.94 142.46 68.20
  C 143.85 71.04 153.31 73.15 156.32 73.58
  A 0.47 0.47 0.0 0 1 156.25 74.51"
/>
<path stroke="#807a72" vector-effect="non-scaling-stroke" d="
  M 92.06 67.69
  C 77.13 65.13 64.69 51.65 50.08 63.31
  Q 41.10 70.48 41.31 83.24
  Q 41.58 100.28 54.92 111.84
  Q 56.61 113.31 57.33 111.18
  Q 57.43 110.90 56.83 110.05
  Q 56.51 109.59 55.93 109.26
  C 38.58 99.18 37.70 64.26 60.84 61.59
  C 75.34 59.92 85.74 72.62 101.40 69.38
  C 106.63 68.29 112.25 64.17 116.54 62.27
  C 131.69 55.55 139.39 68.72 139.22 81.70
  A 0.62 0.61 86.4 0 0 139.92 82.32
  L 140.61 82.22
  Q 141.09 82.16 141.10 81.67
  C 141.38 69.81 133.17 53.08 118.34 59.34
  C 111.09 62.40 99.30 68.93 92.06 67.69"
/>
<path stroke="#7f665b" vector-effect="non-scaling-stroke" d="
  M 202.53 64.32
  C 195.45 64.71 188.84 63.22 181.92 62.04
  Q 177.58 61.30 175.58 61.84
  C 170.21 63.28 167.78 70.02 168.80 74.97
  C 170.44 82.94 178.72 86.60 186.23 84.04
  C 190.01 82.75 193.17 79.67 196.32 76.98
  C 198.66 74.98 201.29 73.76 203.95 72.27
  A 1.13 1.12 53.8 0 0 204.22 70.52
  Q 202.00 68.13 203.03 64.97
  A 0.50 0.50 0.0 0 0 202.53 64.32"
/>
<path stroke="#78211d" vector-effect="non-scaling-stroke" d="
  M 99.78 70.86
  C 91.94 71.90 83.58 69.35 76.06 65.87
  C 43.59 50.87 34.31 94.44 56.27 108.10
  A 0.61 0.61 0.0 0 0 57.20 107.48
  C 56.84 105.35 57.27 104.02 58.99 102.57
  Q 67.77 95.18 77.32 88.79
  A 0.85 0.84 -19.4 0 0 77.70 88.00
  Q 77.43 84.61 76.84 81.29
  Q 76.43 78.93 78.75 78.50
  Q 90.68 76.29 102.29 76.26
  A 1.40 1.39 88.9 0 1 103.69 77.62
  L 103.88 84.71
  Q 103.90 85.27 104.34 85.61
  L 108.69 88.98
  Q 109.17 89.35 109.71 89.08
  Q 122.79 82.38 137.50 82.28
  Q 138.04 82.28 138.06 81.74
  C 138.40 71.17 132.88 58.90 119.94 62.36
  C 112.54 64.34 107.57 69.82 99.78 70.86"
/>
<path stroke="#7f665b" vector-effect="non-scaling-stroke" d="
  M 36.04 81.48
  C 33.68 94.91 40.34 115.65 56.33 117.63
  Q 57.00 117.71 57.00 117.03
  L 57.00 115.11
  Q 57.00 114.47 56.44 114.17
  C 42.32 106.68 34.74 83.69 43.04 69.59
  A 0.21 0.21 0.0 0 0 42.71 69.34
  C 39.23 72.92 36.92 76.46 36.04 81.48"
/>
<path stroke="#806b5d" vector-effect="non-scaling-stroke" d="
  M 174.46 84.35
  Q 169.02 81.78 167.48 75.98
  A 0.36 0.36 0.0 0 0 166.77 76.04
  C 166.46 79.24 161.00 83.10 158.43 84.64
  A 0.32 0.31 -52.3 0 0 158.50 85.21
  L 166.77 87.59
  A 1.24 1.19 41.6 0 0 167.53 87.56
  L 174.43 84.97
  A 0.34 0.34 0.0 0 0 174.46 84.35"
/>
<path stroke="#045777" vector-effect="non-scaling-stroke" d="
  M 101.9385 77.7451
  A 0.77 0.77 0.0 0 0 101.0816 77.0731
  L 79.1814 79.7234
  A 0.77 0.77 0.0 0 0 78.5094 80.5803
  L 79.2615 86.7949
  A 0.77 0.77 0.0 0 0 80.1184 87.4669
  L 102.0186 84.8166
  A 0.77 0.77 0.0 0 0 102.6906 83.9597
  L 101.9385 77.7451"
/>
<path stroke="#686c6f" vector-effect="non-scaling-stroke" d="
  M 119.49 98.25
  Q 122.21 100.05 122.50 102.50
  Q 123.38 109.79 123.77 123.80"
/>
<path stroke="#4a4a4b" vector-effect="non-scaling-stroke" d="
  M 123.77 123.80
  L 124.07 128.49
  A 0.78 0.77 -1.9 0 0 124.86 129.22
  L 138.65 129.12
  Q 139.42 129.12 139.57 128.35
  L 140.47 123.48"
/>
<path stroke="#5d6062" vector-effect="non-scaling-stroke" d="
  M 140.47 123.48
  L 141.90 119.01
  Q 142.06 118.51 141.56 118.35
  L 129.18 114.50
  A 0.47 0.47 0.0 0 0 128.57 114.88
  L 127.50 121.50"
/>
<path stroke="#4a4a4b" vector-effect="non-scaling-stroke" d="
  M 127.50 121.50
  Q 127.03 121.22 126.47 121.18"
/>
<path stroke="#686c6f" vector-effect="non-scaling-stroke" d="
  M 126.47 121.18
  Q 128.40 109.19 126.29 97.29"
/>
<path stroke="#4e5a60" vector-effect="non-scaling-stroke" d="
  M 126.29 97.29
  L 125.31 89.91
  A 0.21 0.20 -56.1 0 1 125.71 89.83
  L 128.31 100.03
  Q 128.39 100.36 128.70 100.21
  C 133.96 97.56 139.66 94.27 145.51 93.25
  Q 147.33 92.94 147.75 95.36"
/>
<path stroke="#686c6f" vector-effect="non-scaling-stroke" d="
  M 147.75 95.36
  L 147.54 108.66
  A 0.44 0.44 0.0 0 0 148.33 108.94
  C 156.79 97.88 166.30 111.13 169.27 118.47
  Q 169.60 119.26 170.10 118.57
  Q 174.01 113.19 179.60 112.43"
/>
<path stroke="#5d6062" vector-effect="non-scaling-stroke" d="
  M 179.60 112.43
  L 184.14 113.61
  A 1.12 1.07 -46.3 0 0 184.80 113.58
  Q 188.74 112.14 192.90 112.08
  Q 193.43 112.07 193.61 111.58
  Q 194.24 109.85 193.80 107.96"
/>
<path stroke="#686c6f" vector-effect="non-scaling-stroke" d="
  M 193.80 107.96
  L 193.72 105.03
  Q 193.70 104.53 193.27 104.29
  L 176.32 94.80"
/>
<path stroke="#4e5a60" vector-effect="non-scaling-stroke" d="
  M 176.32 94.80
  Q 169.57 89.79 161.51 87.69
  Q 154.07 85.76 147.95 84.73
  C 143.40 83.96 138.73 84.26 134.05 84.41
  C 125.48 84.67 118.44 86.65 110.96 90.16
  A 0.39 0.39 0.0 0 0 110.87 90.81
  L 119.49 98.25"
/>
<path stroke="#b4c4cd" vector-effect="non-scaling-stroke" d="
  M 176.32 94.80
  Q 157.44 86.71 138.93 85.37
  Q 138.01 85.30 138.47 86.11
  L 139.06 87.15
  A 0.53 0.52 -13.4 0 0 139.47 87.40
  Q 152.79 88.25 165.33 92.96
  A 1.13 1.13 0.0 0 1 164.95 95.14
  L 147.75 95.36"
/>
<path stroke="#b4c4cd" vector-effect="non-scaling-stroke" d="
  M 126.29 97.29
  Q 122.17 95.89 119.49 98.25"
/>
<path stroke="#c3cad0" vector-effect="non-scaling-stroke" d="
  M 193.80 107.96
  L 193.73 109.04
  Q 193.70 109.53 193.21 109.48
  Q 188.20 108.94 183.37 110.49
  Q 182.87 110.65 182.37 110.51
  Q 180.02 109.83 179.60 112.43"
/>
<path stroke="#afb4b8" vector-effect="non-scaling-stroke" d="
  M 126.47 121.18
  Q 125.69 123.52 123.77 123.80"
/>
<path stroke="#a5a8ac" vector-effect="non-scaling-stroke" d="
  M 140.47 123.48
  Q 133.13 124.46 128.50 124.00
  Q 127.12 123.86 127.50 121.50"
/>
<path stroke="#045777" vector-effect="non-scaling-stroke" d="
  M 105.36 145.92
  L 105.80 154.19
  A 0.60 0.59 -24.3 0 0 106.82 154.57
  L 121.66 139.67
  Q 122.03 139.30 122.07 138.77
  L 122.52 132.72"
/>
<path stroke="#818080" vector-effect="non-scaling-stroke" d="
  M 122.52 132.72
  L 120.81 102.74
  A 0.58 0.57 -13.4 0 0 120.01 102.25
  L 107.23 107.70
  Q 106.96 107.81 107.07 107.56
  Q 107.10 107.50 107.19 107.45
  Q 113.08 104.36 118.89 101.23
  A 0.82 0.81 51.2 0 0 119.03 99.89
  L 103.27 86.49
  Q 102.82 86.11 102.23 86.19
  L 81.39 89.01
  A 0.37 0.37 0.0 0 0 81.20 89.66
  L 101.66 107.38
  A 3.95 3.95 0.0 0 1 103.03 110.14
  L 105.36 145.92"
/>
<path stroke="#82d6f6" vector-effect="non-scaling-stroke" d="
  M 122.52 132.72
  L 105.36 145.92"
/>
<path stroke="#045777" vector-effect="non-scaling-stroke" d="
  M 59.14 143.11
  L 59.35 150.94
  A 1.35 1.34 2.2 0 0 60.56 152.24
  L 103.11 156.56
  Q 104.33 156.68 104.26 155.46
  L 103.79 146.96"
/>
<path stroke="#818080" vector-effect="non-scaling-stroke" d="
  M 103.79 146.96
  L 101.36 110.35
  A 3.00 2.96 18.8 0 0 100.33 108.29
  L 78.98 89.95
  Q 78.57 89.60 78.15 89.92
  L 59.01 104.34
  A 1.01 0.99 -19.7 0 0 58.62 105.15
  L 59.14 143.11"
/>
<path stroke="#82d6f6" vector-effect="non-scaling-stroke" d="
  M 103.79 146.96
  Q 81.49 146.35 59.14 143.11"
/>
<path stroke="#17120f" vector-effect="non-scaling-stroke" d="
  M 130.86 100.85
  Q 128.22 100.64 129.60 103.08"
/>
<path stroke="#5d6062" vector-effect="non-scaling-stroke" d="
  M 129.60 103.08
  Q 129.43 103.41 129.27 103.74"
/>
<path stroke="#17120f" vector-effect="non-scaling-stroke" d="
  M 129.27 103.74
  Q 127.67 102.09 129.52 107.03"
/>
<path stroke="#5d6062" vector-effect="non-scaling-stroke" d="
  M 129.52 107.03
  Q 129.14 107.00 128.97 107.59
  A 0.28 0.27 -81.4 0 0 129.23 107.95
  L 141.18 107.99
  A 0.08 0.08 0.0 0 1 141.24 108.13
  Q 141.15 108.23 141.05 108.32
  Q 140.99 108.38 140.91 108.39
  L 129.25 108.94
  A 0.54 0.54 0.0 0 0 129.20 110.01
  Q 133.63 110.66 138.25 111.73
  Q 138.51 111.79 138.70 111.96
  Q 139.04 112.25 138.59 112.18
  Q 134.12 111.46 129.60 111.09
  Q 129.29 111.07 129.05 111.20
  Q 128.66 111.41 128.61 111.62
  A 1.18 1.04 -74.0 0 0 129.28 113.04
  L 142.15 116.85
  A 0.81 0.80 22.5 0 0 143.08 116.47
  L 146.09 111.08
  Q 146.32 110.67 146.26 110.20
  C 145.82 106.93 145.56 104.48 146.24 100.96
  Q 146.83 97.94 146.75 94.85
  A 0.59 0.58 -8.7 0 0 145.99 94.30
  Q 138.31 96.59 130.86 100.85"
/>
<path stroke="#727070" vector-effect="non-scaling-stroke" d="
  M 129.52 107.03
  L 140.38 104.56
  Q 140.47 104.54 140.45 104.44
  Q 140.43 104.29 140.34 104.20
  Q 140.25 104.12 140.02 104.14
  Q 135.86 104.64 131.67 104.99
  Q 131.58 105.00 131.55 104.91
  Q 131.51 104.79 131.47 104.67
  Q 131.45 104.60 131.56 104.57
  L 140.45 101.72
  Q 140.84 101.59 140.50 101.36
  Q 140.30 101.22 140.02 101.31
  Q 134.67 103.10 129.27 103.74"
/>
<path stroke="#727070" vector-effect="non-scaling-stroke" d="
  M 129.60 103.08
  L 141.04 98.34
  Q 141.24 98.25 141.32 98.05
  Q 141.39 97.87 141.39 97.72
  Q 141.38 97.25 140.96 97.48
  Q 136.13 100.10 130.86 100.85"
/>
<path stroke="#17120f" vector-effect="non-scaling-stroke" d="
  M 195.82 108.12
  L 195.51 109.40"
/>
<path stroke="#5d6062" vector-effect="non-scaling-stroke" d="
  M 195.51 109.40
  Q 195.04 110.87 197.35 110.29
  C 200.16 109.59 205.68 111.41 209.17 112.38
  Q 209.46 112.46 209.65 112.60
  Q 210.28 113.07 209.46 112.88
  C 204.94 111.81 200.55 110.21 197.38 111.34
  Q 196.28 111.74 197.43 111.90
  L 199.60 112.21"
/>
<path stroke="#17120f" vector-effect="non-scaling-stroke" d="
  M 199.60 112.21
  Q 199.18 112.91 198.43 113.31
  Q 197.98 113.54 198.41 113.81
  Q 199.40 114.43 200.74 114.48"
/>
<path stroke="#4a4a4b" vector-effect="non-scaling-stroke" d="
  M 200.74 114.48
  L 217.50 121.39
  A 0.78 0.78 0.0 0 0 218.49 120.32
  L 216.48 116.29"
/>
<path stroke="#5d6062" vector-effect="non-scaling-stroke" d="
  M 216.48 116.29
  C 215.50 113.91 213.53 111.27 213.57 109.01
  C 213.64 105.47 216.32 101.00 217.85 97.71
  A 1.16 1.16 0.0 0 0 216.42 96.12
  C 209.26 98.58 202.91 101.73 195.67 103.68
  A 0.97 0.96 -39.7 0 0 195.50 105.48
  C 196.81 106.11 197.68 106.43 199.18 106.05
  Q 205.75 104.37 210.55 103.96
  Q 213.68 103.70 210.63 104.43
  Q 203.34 106.16 195.92 107.07
  Q 195.49 107.12 195.49 107.56
  Q 195.49 107.98 195.82 108.12"
/>
<path stroke="#a5a8ac" vector-effect="non-scaling-stroke" d="
  M 216.48 116.29
  L 209.07 115.25"
/>
<path stroke="#727070" vector-effect="non-scaling-stroke" d="
  M 209.07 115.25
  L 199.60 112.21"
/>
<path stroke="#727070" vector-effect="non-scaling-stroke" d="
  M 195.51 109.40
  L 206.97 108.66
  Q 207.12 108.65 207.17 108.51
  Q 207.21 108.38 207.25 108.25
  Q 207.32 108.06 207.11 108.06
  L 195.82 108.12"
/>
<path stroke="#5e5a58" vector-effect="non-scaling-stroke" d="
  M 209.07 115.25
  Q 205.60 114.69 202.20 113.64
  Q 201.63 113.47 201.33 113.70
  Q 201.00 113.94 200.74 114.48"
/>
<path stroke="#806b5d" vector-effect="non-scaling-stroke" d="
  M 168.32 121.09
  C 166.08 113.27 157.63 99.01 148.80 110.28
  Q 142.41 118.44 141.22 129.34
  A 0.74 0.73 6.4 0 0 141.86 130.14
  C 149.10 131.08 159.87 135.10 163.15 142.33
  A 0.56 0.56 0.0 0 0 164.20 141.97
  C 162.68 135.47 164.95 128.44 168.24 121.98
  Q 168.46 121.55 168.32 121.09"
/>
<path stroke="#806b5d" vector-effect="non-scaling-stroke" d="
  M 184.06 115.44
  C 172.67 104.88 152.74 147.46 176.41 151.94
  C 182.20 153.04 188.96 151.27 192.10 146.08
  C 197.69 136.85 191.13 121.99 184.06 115.44"
/>
<path stroke="#806945" vector-effect="non-scaling-stroke" d="
  M 131.75 130.88
  L 124.86 130.76
  A 0.64 0.64 0.0 0 0 124.21 131.39
  L 124.13 137.01
  A 0.26 0.26 0.0 0 0 124.62 137.14
  Q 127.09 132.76 131.81 131.27
  A 0.20 0.20 0.0 0 0 131.75 130.88"
/>
<path stroke="#806b5d" vector-effect="non-scaling-stroke" d="
  M 161.56 148.10
  C 167.74 134.79 120.65 118.23 124.31 148.27
  C 126.75 168.25 156.12 159.80 161.56 148.10"
/>
<path stroke="#8d322a" vector-effect="non-scaling-stroke" d="
  M 71.5108 81.7241
  A 9.23 7.51 35.0 0 0 68.2576 70.2782
  A 9.23 7.51 35.0 0 0 56.3892 71.1359
  A 9.23 7.51 35.0 0 0 59.6424 82.5818
  A 9.23 7.51 35.0 0 0 71.5108 81.7241"
/>
<path stroke="#958b7f" vector-effect="non-scaling-stroke" d="
  M 70.3773 81.1194
  A 7.94 6.20 36.2 0 0 67.6318 71.4268
  A 7.94 6.20 36.2 0 0 57.5627 71.7406
  A 7.94 6.20 36.2 0 0 60.3082 81.4332
  A 7.94 6.20 36.2 0 0 70.3773 81.1194"
/>
<path stroke="#807a72" vector-effect="non-scaling-stroke" d="
  M 68.6721 79.4883
  A 5.66 4.63 34.9 0 0 66.6790 72.4527
  A 5.66 4.63 34.9 0 0 59.3879 73.0117
  A 5.66 4.63 34.9 0 0 61.3810 80.0473
  A 5.66 4.63 34.9 0 0 68.6721 79.4883"
/>
<path stroke="#44272b" vector-effect="non-scaling-stroke" d="
  M 67.6336 78.8878
  A 4.46 3.41 36.1 0 0 66.0392 73.5048
  A 4.46 3.41 36.1 0 0 60.4264 73.6322
  A 4.46 3.41 36.1 0 0 62.0208 79.0152
  A 4.46 3.41 36.1 0 0 67.6336 78.8878"
/>
<path stroke="#95918e" vector-effect="non-scaling-stroke" d="
  M 62.46 106.13
  L 62.39 107.03
  A 0.15 0.15 0.0 0 0 62.53 107.19
  L 76.99 108.35
  A 20.76 0.60 4.6 0 0 97.73 109.42
  L 97.73 109.42
  A 20.76 0.60 4.6 0 0 77.09 107.16
  L 62.62 105.99
  A 0.15 0.15 0.0 0 0 62.46 106.13"
/>
<path stroke="#82d6f6" vector-effect="non-scaling-stroke" d="
  M 73.67 133.32
  L 73.79 138.33
  Q 73.82 139.40 74.88 139.55
  L 76.52 139.78
  A 0.62 0.62 0.0 0 0 77.22 139.14
  L 76.66 126.86
  A 0.63 0.62 89.0 0 0 76.05 126.26
  L 72.94 126.24
  Q 72.36 126.24 72.18 126.79
  L 70.50 132.00
  A 0.35 0.34 -42.9 0 1 69.84 131.98
  L 68.52 126.44
  Q 68.36 125.79 67.70 125.73
  L 64.52 125.43
  Q 63.91 125.37 63.88 125.98
  L 63.17 138.06
  Q 63.12 138.75 63.81 138.75
  L 65.59 138.75
  Q 66.18 138.75 66.22 138.16
  L 66.57 133.02
  A 0.24 0.24 0.0 0 1 67.04 132.97
  L 68.50 137.99
  A 1.59 1.59 0.0 0 0 71.55 138.02
  L 73.05 133.23
  A 0.32 0.32 0.0 0 1 73.67 133.32"
/>
<path stroke="#82d6f6" vector-effect="non-scaling-stroke" d="
  M 79.18 129.98
  Q 78.82 130.44 78.80 130.82
  Q 78.64 133.29 78.80 139.05
  Q 78.81 139.69 79.45 139.76
  L 81.21 139.94
  Q 82.01 140.02 82.01 139.21
  L 82.00 131.35
  A 1.16 1.13 22.5 0 0 81.65 130.53
  L 81.32 130.20
  Q 81.04 129.92 81.32 129.63
  Q 82.10 128.82 82.08 127.40
  A 1.63 1.62 -30.6 0 0 79.04 126.62
  Q 78.30 127.94 79.19 129.19
  Q 79.48 129.59 79.18 129.98"
/>
<path stroke="#82d6f6" vector-effect="non-scaling-stroke" d="
  M 87.1712 127.1960
  A 0.89 0.89 0.0 0 0 86.2843 126.3029
  L 84.6643 126.2972
  A 0.89 0.89 0.0 0 0 83.7712 127.1841
  L 83.7288 139.3440
  A 0.89 0.89 0.0 0 0 84.6157 140.2371
  L 86.2357 140.2428
  A 0.89 0.89 0.0 0 0 87.1288 139.3559
  L 87.1712 127.1960"
/>
<path stroke="#82d6f6" vector-effect="non-scaling-stroke" d="
  M 95.34 134.53
  L 97.58 132.30
  A 0.48 0.47 34.2 0 0 97.43 131.53
  Q 94.74 130.38 93.09 132.43
  A 0.54 0.54 0.0 0 1 92.13 132.07
  L 92.28 127.84
  Q 92.30 127.31 91.86 127.01
  Q 90.66 126.15 89.27 126.72
  Q 88.75 126.93 88.75 127.49
  L 88.75 139.78
  Q 88.75 140.37 89.31 140.56
  Q 90.37 140.92 91.46 140.47
  Q 92.02 140.25 92.02 139.65
  L 92.02 138.39
  Q 92.02 138.00 92.41 138.00
  Q 92.59 138.00 92.76 138.00
  A 0.47 0.47 0.0 0 1 93.23 138.36
  Q 94.02 141.89 97.79 141.14
  Q 98.50 141.00 98.13 140.38
  L 95.22 135.46
  A 0.77 0.76 -37.8 0 1 95.34 134.53"
/>
<path stroke="#727070" vector-effect="non-scaling-stroke" d="
  M 210.78 100.28
  L 197.76 104.64
  A 0.16 0.16 0.0 0 0 197.80 104.95
  C 201.33 105.15 208.08 101.86 211.91 100.46
  A 0.53 0.52 56.8 0 0 212.09 99.59
  Q 211.33 98.86 211.21 99.77
  Q 211.15 100.16 210.78 100.28"
/>
<path stroke="#775d44" vector-effect="non-scaling-stroke" d="
  M 90.68 163.54
  Q 89.17 159.06 83.93 159.94
  C 78.00 160.94 73.55 163.51 67.96 159.97
  C 63.96 157.43 58.78 155.56 56.00 160.97
  Q 53.33 166.16 57.34 170.51
  C 60.31 173.75 69.78 171.76 73.72 171.56
  C 77.23 171.38 80.27 172.61 83.55 173.58
  A 1.45 1.45 0.0 0 0 85.21 172.92
  Q 87.41 169.16 91.51 167.63
  Q 92.04 167.44 92.26 166.91
  C 92.76 165.69 93.49 160.96 91.18 160.72
  A 0.44 0.43 73.4 0 0 90.80 161.43
  Q 91.56 162.37 91.31 163.50
  Q 91.05 164.64 90.68 163.54"
/>
<path stroke="#775d44" vector-effect="non-scaling-stroke" d="
  M 87.64 179.72
  Q 88.24 180.17 88.48 180.92
  Q 88.63 181.40 89.10 181.59
  C 94.90 183.96 99.90 180.09 105.83 180.13
  C 109.74 180.16 112.58 184.15 116.35 184.32
  C 124.69 184.71 125.55 170.52 116.72 169.36
  C 110.02 168.49 104.63 171.38 97.54 169.43
  Q 90.29 167.43 86.23 174.27
  C 85.81 174.98 85.98 175.97 86.18 176.73
  A 0.19 0.19 0.0 0 1 85.91 176.95
  L 85.63 176.80
  Q 85.30 176.62 85.19 176.98
  Q 84.34 179.77 86.20 181.61
  Q 86.64 182.03 87.04 181.58
  Q 87.51 181.05 86.97 180.49
  A 0.51 0.51 0.0 0 1 87.64 179.72"
/>
<path stroke="#775d44" vector-effect="non-scaling-stroke" d="
  M 64.94 161.30
  Q 63.55 160.11 61.74 159.96
  A 0.36 0.36 0.0 0 0 61.52 160.63
  Q 63.36 161.77 64.46 162.16
  Q 67.02 163.08 64.94 161.30"
/>
<path stroke="#a47360" vector-effect="non-scaling-stroke" d="
  M 77.09 164.63
  L 85.64 163.40
  A 0.17 0.17 0.0 0 0 85.79 163.20
  L 85.78 163.16
  A 4.31 1.41 -8.2 0 0 81.31 162.38
  L 80.96 162.43
  A 4.31 1.41 -8.2 0 0 76.89 164.44
  L 76.90 164.48
  A 0.17 0.17 0.0 0 0 77.09 164.63"
/>
<path stroke="#775d44" vector-effect="non-scaling-stroke" d="
  M 64.28 164.05
  L 58.95 163.41
  A 0.21 0.20 -21.3 0 0 58.79 163.77
  Q 61.24 165.87 64.34 164.48
  A 0.23 0.22 -53.2 0 0 64.28 164.05"
/>
<path stroke="#a47360" vector-effect="non-scaling-stroke" d="
  M 82.40 167.65
  Q 80.18 167.15 77.95 167.26
  Q 76.04 167.35 77.80 168.11
  Q 82.15 170.00 85.93 167.53
  A 0.43 0.42 17.7 0 0 85.54 166.78
  L 83.53 167.56
  Q 82.98 167.78 82.40 167.65"
/>
<path stroke="#775d44" vector-effect="non-scaling-stroke" d="
  M 63.3788 169.6811
  A 0.45 0.45 0.0 0 0 63.0959 169.1110
  L 58.2622 167.4843
  A 0.45 0.45 0.0 0 0 57.6922 167.7673
  L 57.6412 167.9189
  A 0.45 0.45 0.0 0 0 57.9241 168.4890
  L 62.7578 170.1157
  A 0.45 0.45 0.0 0 0 63.3278 169.8327
  L 63.3788 169.6811"
/>
<path stroke="#775d44" vector-effect="non-scaling-stroke" d="
  M 86.17 169.59
  L 81.24 171.03
  A 0.14 0.14 0.0 0 0 81.14 171.20
  L 81.14 171.21
  A 2.58 1.33 -16.2 0 0 83.99 171.77
  L 84.24 171.69
  A 2.58 1.33 -16.2 0 0 86.35 169.70
  L 86.35 169.69
  A 0.14 0.14 0.0 0 0 86.17 169.59"
/>
<path stroke="#654e57" vector-effect="non-scaling-stroke" d="
  M 152.41 175.12
  C 153.84 174.18 156.31 174.41 156.55 172.04
  C 157.00 167.58 148.58 162.91 144.80 165.25
  A 1.56 1.56 0.0 0 0 144.15 167.12
  Q 146.00 172.15 150.71 174.53
  A 1.09 0.01 44.2 0 1 151.49 175.28
  Q 151.96 175.73 152.67 175.42
  A 0.06 0.06 0.0 0 0 152.67 175.31
  Q 152.55 175.27 152.43 175.23
  Q 152.31 175.19 152.41 175.12"
/>
<path stroke="#654e57" vector-effect="non-scaling-stroke" d="
  M 127.61 168.74
  L 127.61 172.80
  A 1.83 1.83 0.0 0 0 129.43 174.63
  L 132.72 174.64
  A 8.20 3.84 0.1 0 0 140.93 170.81
  L 140.93 170.77
  A 8.20 3.84 0.1 0 0 132.74 166.92
  L 129.45 166.91
  A 1.83 1.83 0.0 0 0 127.61 168.74"
/>
<path stroke="#775d44" vector-effect="non-scaling-stroke" d="
  M 96.6154 171.1430
  A 2.38 0.61 -12.3 0 0 94.1601 171.0540
  A 2.38 0.61 -12.3 0 0 91.9646 172.1570
  A 2.38 0.61 -12.3 0 0 94.4199 172.2460
  A 2.38 0.61 -12.3 0 0 96.6154 171.1430"
/>
<path stroke="#775d44" vector-effect="non-scaling-stroke" d="
  M 120.3635 173.5677
  A 0.26 0.26 0.0 0 0 120.1632 173.2594
  L 114.2356 171.9994
  A 0.26 0.26 0.0 0 0 113.9272 172.1997
  L 113.8565 172.5323
  A 0.26 0.26 0.0 0 0 114.0568 172.8406
  L 119.9844 174.1006
  A 0.26 0.26 0.0 0 0 120.2928 173.9003
  L 120.3635 173.5677"
/>
<path stroke="#775d44" vector-effect="non-scaling-stroke" d="
  M 100.74 174.38
  Q 95.93 172.72 91.81 175.17
  A 0.28 0.27 20.8 0 0 92.04 175.67
  L 94.56 174.91
  Q 94.93 174.80 95.31 174.86
  Q 98.04 175.24 100.72 174.71
  Q 101.33 174.59 100.74 174.38"
/>
<path stroke="#775d44" vector-effect="non-scaling-stroke" d="
  M 119.17 178.00
  Q 116.87 176.60 114.25 177.23
  A 0.19 0.19 0.0 0 0 114.26 177.61
  L 118.97 178.53
  A 0.29 0.29 0.0 0 0 119.17 178.00"
/>
<path stroke="#775d44" vector-effect="non-scaling-stroke" d="
  M 92.67 179.49
  L 92.83 180.36
  A 0.16 0.16 0.0 0 0 93.02 180.49
  L 93.23 180.45
  A 8.67 0.53 -10.4 0 0 101.66 178.36
  L 101.63 178.23
  A 8.67 0.53 -10.4 0 0 93.01 179.27
  L 92.80 179.31
  A 0.16 0.16 0.0 0 0 92.67 179.49"
/>
<path stroke="#775d44" vector-effect="non-scaling-stroke" d="
  M 117.1522 182.0649
  A 2.51 0.56 24.6 0 0 115.1031 180.5108
  A 2.51 0.56 24.6 0 0 112.5878 179.9751
  A 2.51 0.56 24.6 0 0 114.6369 181.5292
  A 2.51 0.56 24.6 0 0 117.1522 182.0649"
/>
</g>
<path fill="#020101" d="
  M 207.20 63.99
  Q 207.16 64.97 206.77 64.80
  C 203.94 64.71 203.18 67.06 204.47 69.02
  L 206.39 70.18
  C 204.71 74.54 201.36 74.47 198.37 76.88
  C 193.21 81.02 190.26 84.07 182.98 86.25
  L 177.71 85.63
  Q 177.19 85.57 176.69 85.77
  L 169.86 88.46
  A 0.30 0.30 0.0 0 0 169.84 89.01
  Q 179.26 93.70 187.76 99.90
  C 198.36 107.41 207.75 94.87 217.87 94.92
  Q 218.39 94.93 218.64 95.37
  C 220.91 99.41 212.62 105.75 215.79 111.28
  Q 218.07 115.26 219.84 119.79
  A 2.14 2.14 0.0 0 1 218.56 122.59
  Q 217.04 123.13 214.60 122.09
  Q 206.71 118.71 198.90 115.14
  C 196.74 114.15 191.88 112.79 189.74 114.07
  Q 189.28 114.35 188.76 114.26
  Q 187.45 114.06 186.73 114.98
  Q 186.39 115.41 186.75 115.82
  C 193.55 123.36 199.09 137.68 193.34 147.11
  C 189.48 153.43 181.15 154.78 174.24 153.03
  Q 167.15 150.74 164.80 144.45
  A 0.48 0.48 0.0 0 0 163.87 144.59
  C 163.11 160.51 123.99 173.20 122.52 146.31
  C 122.43 144.68 122.88 142.74 123.01 141.00
  Q 123.06 140.41 122.65 140.83
  Q 115.00 148.72 107.36 156.60
  Q 105.68 158.33 104.25 158.25
  Q 93.99 157.73 70.27 154.87
  Q 67.97 154.01 66.69 154.54
  L 59.16 152.79
  A 1.40 1.39 -85.0 0 1 58.09 151.51
  L 57.48 140.61
  Q 57.89 139.08 57.17 136.75
  L 56.95 120.02
  A 0.64 0.63 5.1 0 0 56.43 119.41
  L 51.21 118.36
  C 49.27 116.83 46.75 115.48 45.15 113.96
  C 34.35 103.66 29.89 82.96 39.46 70.71
  Q 42.12 67.32 47.92 63.19
  C 55.85 57.54 63.06 55.90 72.18 59.22
  C 84.82 64.41 94.05 70.14 107.23 62.26
  Q 107.63 62.03 107.55 61.57
  C 106.08 53.20 111.37 46.34 118.19 42.37
  A 2.03 2.03 0.0 0 0 119.19 40.85
  Q 119.21 40.72 118.46 40.69
  C 122.05 40.17 126.45 29.33 132.89 29.36
  A 0.78 0.77 0.4 0 1 133.66 30.13
  L 133.71 36.03
  A 0.75 0.75 0.0 0 0 134.62 36.76
  Q 157.22 31.88 176.90 42.52
  C 180.80 44.62 182.86 45.09 186.91 43.82
  Q 187.44 43.65 187.97 43.82
  Q 193.03 45.46 196.00 40.95
  A 1.31 1.20 -0.4 0 1 196.42 40.56
  Q 198.53 39.38 199.73 41.30
  A 1.10 1.10 0.0 0 1 199.83 42.27
  Q 198.86 44.99 201.15 46.61
  A 1.59 1.59 0.0 0 1 200.23 49.50
  L 194.21 49.50
  A 1.15 1.15 0.0 0 0 193.73 51.70
  Q 200.01 54.62 197.78 61.75
  A 1.18 1.18 0.0 0 0 198.98 63.28
  Q 200.66 63.17 202.33 63.30
  C 204.01 63.43 205.14 64.74 207.20 63.99
  Z
  M 121.78 39.85
  Q 121.48 40.02 121.34 40.28
  A 0.28 0.28 0.0 0 0 121.68 40.67
  L 131.44 37.09
  Q 132.00 36.88 132.10 36.28
  L 132.66 32.73
  A 1.51 1.50 74.1 0 0 130.19 31.35
  Q 126.01 34.98 122.39 39.34
  Q 122.13 39.65 121.78 39.85
  Z
  M 139.83 68.02
  L 142.23 75.33
  Q 142.38 75.78 142.76 75.50
  L 146.07 73.06
  A 0.43 0.43 0.0 0 0 145.96 72.31
  Q 142.14 70.95 140.38 67.75
  C 141.73 60.96 155.11 55.76 160.87 53.34
  Q 162.96 52.47 164.05 53.89
  Q 165.24 55.45 164.27 57.15
  L 160.10 64.45
  A 0.65 0.65 0.0 0 0 160.62 65.42
  Q 164.59 65.66 166.93 68.73
  Q 167.31 69.22 167.50 68.63
  Q 170.44 59.72 180.16 60.71
  Q 187.92 61.50 195.18 62.70
  A 1.11 1.10 -75.6 0 0 196.40 61.97
  C 198.17 56.83 196.86 54.66 192.16 52.23
  C 188.00 50.07 184.11 48.25 179.90 45.54
  Q 156.20 30.32 128.50 39.41
  C 118.59 42.66 108.59 48.68 108.63 60.55
  A 0.94 0.94 0.0 0 0 110.01 61.38
  C 122.10 54.95 132.90 53.74 139.83 68.02
  Z
  M 198.59 44.40
  Q 198.95 43.22 198.70 42.02
  A 1.10 1.10 0.0 0 0 196.74 41.58
  Q 194.59 44.45 191.13 45.54
  A 0.93 0.93 0.0 0 0 190.81 47.14
  L 192.66 48.70
  A 0.70 0.68 -26.2 0 0 193.12 48.85
  L 199.74 48.38
  A 0.71 0.70 68.8 0 0 200.24 47.24
  L 198.78 45.37
  Q 198.43 44.94 198.59 44.40
  Z
  M 189.29 47.70
  L 188.56 45.30
  Q 188.43 44.89 188.00 44.97
  L 184.51 45.62
  A 0.49 0.49 0.0 0 0 184.38 46.54
  L 190.42 49.65
  A 0.34 0.34 0.0 0 0 190.89 49.23
  Q 190.67 48.58 190.01 48.40
  Q 189.46 48.24 189.29 47.70
  Z
  M 156.25 74.51
  Q 152.61 74.47 149.14 73.46
  A 1.00 0.99 -53.7 0 0 148.28 73.60
  L 143.18 77.18
  Q 142.75 77.48 142.75 78.00
  L 142.75 81.61
  Q 142.75 82.26 143.38 82.35
  L 155.35 84.21
  Q 155.80 84.28 156.20 84.07
  C 161.78 81.12 168.68 75.68 165.09 68.69
  A 0.89 0.88 -3.2 0 0 164.58 68.24
  L 159.21 66.42
  A 1.45 1.44 -65.9 0 1 158.42 64.34
  L 163.46 55.47
  A 1.00 1.00 0.0 0 0 162.23 54.04
  C 158.79 55.36 140.39 63.94 142.46 68.20
  C 143.85 71.04 153.31 73.15 156.32 73.58
  A 0.47 0.47 0.0 0 1 156.25 74.51
  Z
  M 92.06 67.69
  C 77.13 65.13 64.69 51.65 50.08 63.31
  Q 41.10 70.48 41.31 83.24
  Q 41.58 100.28 54.92 111.84
  Q 56.61 113.31 57.33 111.18
  Q 57.43 110.90 56.83 110.05
  Q 56.51 109.59 55.93 109.26
  C 38.58 99.18 37.70 64.26 60.84 61.59
  C 75.34 59.92 85.74 72.62 101.40 69.38
  C 106.63 68.29 112.25 64.17 116.54 62.27
  C 131.69 55.55 139.39 68.72 139.22 81.70
  A 0.62 0.61 86.4 0 0 139.92 82.32
  L 140.61 82.22
  Q 141.09 82.16 141.10 81.67
  C 141.38 69.81 133.17 53.08 118.34 59.34
  C 111.09 62.40 99.30 68.93 92.06 67.69
  Z
  M 202.53 64.32
  C 195.45 64.71 188.84 63.22 181.92 62.04
  Q 177.58 61.30 175.58 61.84
  C 170.21 63.28 167.78 70.02 168.80 74.97
  C 170.44 82.94 178.72 86.60 186.23 84.04
  C 190.01 82.75 193.17 79.67 196.32 76.98
  C 198.66 74.98 201.29 73.76 203.95 72.27
  A 1.13 1.12 53.8 0 0 204.22 70.52
  Q 202.00 68.13 203.03 64.97
  A 0.50 0.50 0.0 0 0 202.53 64.32
  Z
  M 99.78 70.86
  C 91.94 71.90 83.58 69.35 76.06 65.87
  C 43.59 50.87 34.31 94.44 56.27 108.10
  A 0.61 0.61 0.0 0 0 57.20 107.48
  C 56.84 105.35 57.27 104.02 58.99 102.57
  Q 67.77 95.18 77.32 88.79
  A 0.85 0.84 -19.4 0 0 77.70 88.00
  Q 77.43 84.61 76.84 81.29
  Q 76.43 78.93 78.75 78.50
  Q 90.68 76.29 102.29 76.26
  A 1.40 1.39 88.9 0 1 103.69 77.62
  L 103.88 84.71
  Q 103.90 85.27 104.34 85.61
  L 108.69 88.98
  Q 109.17 89.35 109.71 89.08
  Q 122.79 82.38 137.50 82.28
  Q 138.04 82.28 138.06 81.74
  C 138.40 71.17 132.88 58.90 119.94 62.36
  C 112.54 64.34 107.57 69.82 99.78 70.86
  Z
  M 36.04 81.48
  C 33.68 94.91 40.34 115.65 56.33 117.63
  Q 57.00 117.71 57.00 117.03
  L 57.00 115.11
  Q 57.00 114.47 56.44 114.17
  C 42.32 106.68 34.74 83.69 43.04 69.59
  A 0.21 0.21 0.0 0 0 42.71 69.34
  C 39.23 72.92 36.92 76.46 36.04 81.48
  Z
  M 174.46 84.35
  Q 169.02 81.78 167.48 75.98
  A 0.36 0.36 0.0 0 0 166.77 76.04
  C 166.46 79.24 161.00 83.10 158.43 84.64
  A 0.32 0.31 -52.3 0 0 158.50 85.21
  L 166.77 87.59
  A 1.24 1.19 41.6 0 0 167.53 87.56
  L 174.43 84.97
  A 0.34 0.34 0.0 0 0 174.46 84.35
  Z
  M 101.9385 77.7451
  A 0.77 0.77 0.0 0 0 101.0816 77.0731
  L 79.1814 79.7234
  A 0.77 0.77 0.0 0 0 78.5094 80.5803
  L 79.2615 86.7949
  A 0.77 0.77 0.0 0 0 80.1184 87.4669
  L 102.0186 84.8166
  A 0.77 0.77 0.0 0 0 102.6906 83.9597
  L 101.9385 77.7451
  Z
  M 119.49 98.25
  Q 122.21 100.05 122.50 102.50
  Q 123.38 109.79 123.77 123.80
  L 124.07 128.49
  A 0.78 0.77 -1.9 0 0 124.86 129.22
  L 138.65 129.12
  Q 139.42 129.12 139.57 128.35
  L 140.47 123.48
  L 141.90 119.01
  Q 142.06 118.51 141.56 118.35
  L 129.18 114.50
  A 0.47 0.47 0.0 0 0 128.57 114.88
  L 127.50 121.50
  Q 127.03 121.22 126.47 121.18
  Q 128.40 109.19 126.29 97.29
  L 125.31 89.91
  A 0.21 0.20 -56.1 0 1 125.71 89.83
  L 128.31 100.03
  Q 128.39 100.36 128.70 100.21
  C 133.96 97.56 139.66 94.27 145.51 93.25
  Q 147.33 92.94 147.75 95.36
  L 147.54 108.66
  A 0.44 0.44 0.0 0 0 148.33 108.94
  C 156.79 97.88 166.30 111.13 169.27 118.47
  Q 169.60 119.26 170.10 118.57
  Q 174.01 113.19 179.60 112.43
  L 184.14 113.61
  A 1.12 1.07 -46.3 0 0 184.80 113.58
  Q 188.74 112.14 192.90 112.08
  Q 193.43 112.07 193.61 111.58
  Q 194.24 109.85 193.80 107.96
  L 193.72 105.03
  Q 193.70 104.53 193.27 104.29
  L 176.32 94.80
  Q 169.57 89.79 161.51 87.69
  Q 154.07 85.76 147.95 84.73
  C 143.40 83.96 138.73 84.26 134.05 84.41
  C 125.48 84.67 118.44 86.65 110.96 90.16
  A 0.39 0.39 0.0 0 0 110.87 90.81
  L 119.49 98.25
  Z
  M 105.36 145.92
  L 105.80 154.19
  A 0.60 0.59 -24.3 0 0 106.82 154.57
  L 121.66 139.67
  Q 122.03 139.30 122.07 138.77
  L 122.52 132.72
  L 120.81 102.74
  A 0.58 0.57 -13.4 0 0 120.01 102.25
  L 107.23 107.70
  Q 106.96 107.81 107.07 107.56
  Q 107.10 107.50 107.19 107.45
  Q 113.08 104.36 118.89 101.23
  A 0.82 0.81 51.2 0 0 119.03 99.89
  L 103.27 86.49
  Q 102.82 86.11 102.23 86.19
  L 81.39 89.01
  A 0.37 0.37 0.0 0 0 81.20 89.66
  L 101.66 107.38
  A 3.95 3.95 0.0 0 1 103.03 110.14
  L 105.36 145.92
  Z
  M 59.14 143.11
  L 59.35 150.94
  A 1.35 1.34 2.2 0 0 60.56 152.24
  L 103.11 156.56
  Q 104.33 156.68 104.26 155.46
  L 103.79 146.96
  L 101.36 110.35
  A 3.00 2.96 18.8 0 0 100.33 108.29
  L 78.98 89.95
  Q 78.57 89.60 78.15 89.92
  L 59.01 104.34
  A 1.01 0.99 -19.7 0 0 58.62 105.15
  L 59.14 143.11
  Z
  M 130.86 100.85
  Q 128.22 100.64 129.60 103.08
  Q 129.43 103.41 129.27 103.74
  Q 127.67 102.09 129.52 107.03
  Q 129.14 107.00 128.97 107.59
  A 0.28 0.27 -81.4 0 0 129.23 107.95
  L 141.18 107.99
  A 0.08 0.08 0.0 0 1 141.24 108.13
  Q 141.15 108.23 141.05 108.32
  Q 140.99 108.38 140.91 108.39
  L 129.25 108.94
  A 0.54 0.54 0.0 0 0 129.20 110.01
  Q 133.63 110.66 138.25 111.73
  Q 138.51 111.79 138.70 111.96
  Q 139.04 112.25 138.59 112.18
  Q 134.12 111.46 129.60 111.09
  Q 129.29 111.07 129.05 111.20
  Q 128.66 111.41 128.61 111.62
  A 1.18 1.04 -74.0 0 0 129.28 113.04
  L 142.15 116.85
  A 0.81 0.80 22.5 0 0 143.08 116.47
  L 146.09 111.08
  Q 146.32 110.67 146.26 110.20
  C 145.82 106.93 145.56 104.48 146.24 100.96
  Q 146.83 97.94 146.75 94.85
  A 0.59 0.58 -8.7 0 0 145.99 94.30
  Q 138.31 96.59 130.86 100.85
  Z
  M 195.82 108.12
  L 195.51 109.40
  Q 195.04 110.87 197.35 110.29
  C 200.16 109.59 205.68 111.41 209.17 112.38
  Q 209.46 112.46 209.65 112.60
  Q 210.28 113.07 209.46 112.88
  C 204.94 111.81 200.55 110.21 197.38 111.34
  Q 196.28 111.74 197.43 111.90
  L 199.60 112.21
  Q 199.18 112.91 198.43 113.31
  Q 197.98 113.54 198.41 113.81
  Q 199.40 114.43 200.74 114.48
  L 217.50 121.39
  A 0.78 0.78 0.0 0 0 218.49 120.32
  L 216.48 116.29
  C 215.50 113.91 213.53 111.27 213.57 109.01
  C 213.64 105.47 216.32 101.00 217.85 97.71
  A 1.16 1.16 0.0 0 0 216.42 96.12
  C 209.26 98.58 202.91 101.73 195.67 103.68
  A 0.97 0.96 -39.7 0 0 195.50 105.48
  C 196.81 106.11 197.68 106.43 199.18 106.05
  Q 205.75 104.37 210.55 103.96
  Q 213.68 103.70 210.63 104.43
  Q 203.34 106.16 195.92 107.07
  Q 195.49 107.12 195.49 107.56
  Q 195.49 107.98 195.82 108.12
  Z
  M 168.32 121.09
  C 166.08 113.27 157.63 99.01 148.80 110.28
  Q 142.41 118.44 141.22 129.34
  A 0.74 0.73 6.4 0 0 141.86 130.14
  C 149.10 131.08 159.87 135.10 163.15 142.33
  A 0.56 0.56 0.0 0 0 164.20 141.97
  C 162.68 135.47 164.95 128.44 168.24 121.98
  Q 168.46 121.55 168.32 121.09
  Z
  M 184.06 115.44
  C 172.67 104.88 152.74 147.46 176.41 151.94
  C 182.20 153.04 188.96 151.27 192.10 146.08
  C 197.69 136.85 191.13 121.99 184.06 115.44
  Z
  M 131.75 130.88
  L 124.86 130.76
  A 0.64 0.64 0.0 0 0 124.21 131.39
  L 124.13 137.01
  A 0.26 0.26 0.0 0 0 124.62 137.14
  Q 127.09 132.76 131.81 131.27
  A 0.20 0.20 0.0 0 0 131.75 130.88
  Z
  M 161.56 148.10
  C 167.74 134.79 120.65 118.23 124.31 148.27
  C 126.75 168.25 156.12 159.80 161.56 148.10
  Z"
/>
<path fill="#fed5b9" d="
  M 122.39 39.34
  Q 126.01 34.98 130.19 31.35
  A 1.51 1.50 74.1 0 1 132.66 32.73
  L 132.10 36.28
  Q 132.00 36.88 131.44 37.09
  L 121.68 40.67
  A 0.28 0.28 0.0 0 1 121.34 40.28
  Q 121.48 40.02 121.78 39.85
  Q 122.13 39.65 122.39 39.34
  Z"
/>
<path fill="#fbcab5" d="
  M 140.38 67.75
  Q 140.14 67.70 139.83 68.02
  C 132.90 53.74 122.10 54.95 110.01 61.38
  A 0.94 0.94 0.0 0 1 108.63 60.55
  C 108.59 48.68 118.59 42.66 128.50 39.41
  Q 156.20 30.32 179.90 45.54
  C 184.11 48.25 188.00 50.07 192.16 52.23
  C 196.86 54.66 198.17 56.83 196.40 61.97
  A 1.11 1.10 -75.6 0 1 195.18 62.70
  Q 187.92 61.50 180.16 60.71
  Q 170.44 59.72 167.50 68.63
  Q 167.31 69.22 166.93 68.73
  Q 164.59 65.66 160.62 65.42
  A 0.65 0.65 0.0 0 1 160.10 64.45
  L 164.27 57.15
  Q 165.24 55.45 164.05 53.89
  Q 162.96 52.47 160.87 53.34
  C 155.11 55.76 141.73 60.96 140.38 67.75
  Z"
/>
<path fill="#fdd089" d="
  M 118.46 40.69
  Q 119.21 40.72 119.19 40.85
  A 2.03 2.03 0.0 0 1 118.19 42.37
  C 111.37 46.34 106.08 53.20 107.55 61.57
  Q 107.63 62.03 107.23 62.26
  C 94.05 70.14 84.82 64.41 72.18 59.22
  C 83.31 46.89 99.31 41.33 116.02 40.41
  Q 117.74 40.32 118.46 40.69
  Z"
/>
<path fill="#fed5b9" d="
  M 190.01 48.40
  Q 190.67 48.58 190.89 49.23
  A 0.34 0.34 0.0 0 1 190.42 49.65
  L 184.38 46.54
  A 0.49 0.49 0.0 0 1 184.51 45.62
  L 188.00 44.97
  Q 188.43 44.89 188.56 45.30
  L 189.29 47.70
  Q 189.46 48.24 190.01 48.40
  Z"
/>
<path fill="#fbcab5" d="
  M 156.25 74.51
  A 0.47 0.47 0.0 0 0 156.32 73.58
  C 153.31 73.15 143.85 71.04 142.46 68.20
  C 140.39 63.94 158.79 55.36 162.23 54.04
  A 1.00 1.00 0.0 0 1 163.46 55.47
  L 158.42 64.34
  A 1.45 1.44 -65.9 0 0 159.21 66.42
  L 164.58 68.24
  A 0.89 0.88 -3.2 0 1 165.09 68.69
  C 168.68 75.68 161.78 81.12 156.20 84.07
  Q 155.80 84.28 155.35 84.21
  L 143.38 82.35
  Q 142.75 82.26 142.75 81.61
  L 142.75 78.00
  Q 142.75 77.48 143.18 77.18
  L 148.28 73.60
  A 1.00 0.99 -53.7 0 1 149.14 73.46
  Q 152.61 74.47 156.25 74.51
  Z"
/>
<path fill="#fef3e2" d="
  M 92.06 67.69
  C 99.30 68.93 111.09 62.40 118.34 59.34
  C 133.17 53.08 141.38 69.81 141.10 81.67
  Q 141.09 82.16 140.61 82.22
  L 139.92 82.32
  A 0.62 0.61 86.4 0 1 139.22 81.70
  C 139.39 68.72 131.69 55.55 116.54 62.27
  C 112.25 64.17 106.63 68.29 101.40 69.38
  C 85.74 72.62 75.34 59.92 60.84 61.59
  C 37.70 64.26 38.58 99.18 55.93 109.26
  Q 56.51 109.59 56.83 110.05
  Q 57.43 110.90 57.33 111.18
  Q 56.61 113.31 54.92 111.84
  Q 41.58 100.28 41.31 83.24
  Q 41.10 70.48 50.08 63.31
  C 64.69 51.65 77.13 65.13 92.06 67.69
  Z"
/>
<path fill="#2b221c" d="
  M 206.39 70.18
  L 204.47 69.02
  L 205.27 68.96
  Q 205.85 69.48 206.25 69.13
  C 207.44 68.09 209.70 67.74 211.30 67.74
  Q 212.90 68.19 214.47 67.61
  Q 216.56 69.12 217.63 68.62
  A 0.85 0.85 0.0 0 0 217.39 67.01
  Q 216.40 66.88 215.87 66.09
  Q 215.61 65.70 215.75 65.26
  L 216.66 62.27
  A 0.64 0.64 0.0 0 0 215.59 61.64
  L 213.49 63.83
  Q 213.20 64.13 212.80 64.27
  L 211.39 64.74
  Q 211.30 64.47 211.17 64.34
  Q 210.83 64.03 210.63 64.45
  Q 210.10 65.59 208.98 65.60
  Q 208.58 65.61 208.70 65.99
  Q 209.08 67.21 211.02 67.41
  Q 208.13 67.55 205.38 65.77
  Q 206.94 65.94 206.77 64.80
  Q 207.16 64.97 207.20 63.99
  Q 209.07 63.21 211.05 63.23
  Q 211.56 63.23 211.96 62.94
  C 213.15 62.10 214.53 60.52 215.99 60.74
  Q 217.43 60.95 217.66 62.81
  Q 217.72 63.27 217.55 63.71
  Q 216.77 65.72 218.70 66.52
  A 0.80 0.80 0.0 0 1 219.20 67.26
  Q 219.22 70.22 216.72 69.70
  Q 211.12 68.55 206.39 70.18
  Z"
/>
<path fill="#fbcab5" d="
  M 202.53 64.32
  A 0.50 0.50 0.0 0 1 203.03 64.97
  Q 202.00 68.13 204.22 70.52
  A 1.13 1.12 53.8 0 1 203.95 72.27
  C 201.29 73.76 198.66 74.98 196.32 76.98
  C 193.17 79.67 190.01 82.75 186.23 84.04
  C 178.72 86.60 170.44 82.94 168.80 74.97
  C 167.78 70.02 170.21 63.28 175.58 61.84
  Q 177.58 61.30 181.92 62.04
  C 188.84 63.22 195.45 64.71 202.53 64.32
  Z"
/>
<path fill="#ee4138" d="
  M 76.06 65.87
  C 83.58 69.35 91.94 71.90 99.78 70.86
  C 107.57 69.82 112.54 64.34 119.94 62.36
  C 132.88 58.90 138.40 71.17 138.06 81.74
  Q 138.04 82.28 137.50 82.28
  Q 122.79 82.38 109.71 89.08
  Q 109.17 89.35 108.69 88.98
  L 104.34 85.61
  Q 103.90 85.27 103.88 84.71
  L 103.69 77.62
  A 1.40 1.39 88.9 0 0 102.29 76.26
  Q 90.68 76.29 78.75 78.50
  Q 76.43 78.93 76.84 81.29
  Q 77.43 84.61 77.70 88.00
  A 0.85 0.84 -19.4 0 1 77.32 88.79
  Q 67.77 95.18 58.99 102.57
  C 57.27 104.02 56.84 105.35 57.20 107.48
  A 0.61 0.61 0.0 0 1 56.27 108.10
  C 34.31 94.44 43.59 50.87 76.06 65.87
  Z
  M 71.5108 81.7241
  A 9.23 7.51 35.0 0 0 68.2576 70.2782
  A 9.23 7.51 35.0 0 0 56.3892 71.1359
  A 9.23 7.51 35.0 0 0 59.6424 82.5818
  A 9.23 7.51 35.0 0 0 71.5108 81.7241
  Z"
/>
<path fill="#cdd6dc" d="
  M 211.39 64.74
  Q 212.63 65.58 214.09 64.92
  Q 214.61 64.68 214.71 65.24
  Q 214.91 66.34 214.47 67.61
  Q 212.90 68.19 211.30 67.74
  Q 211.16 67.58 211.02 67.41
  Q 209.08 67.21 208.70 65.99
  Q 208.58 65.61 208.98 65.60
  Q 210.10 65.59 210.63 64.45
  Q 210.83 64.03 211.17 64.34
  Q 211.30 64.47 211.39 64.74
  Z"
/>
<path fill="#c3986c" d="
  M 206.77 64.80
  Q 206.94 65.94 205.38 65.77
  Q 204.71 67.09 205.26 67.67
  Q 205.46 67.89 205.31 68.14
  Q 205.15 68.40 205.27 68.96
  L 204.47 69.02
  C 203.18 67.06 203.94 64.71 206.77 64.80
  Z"
/>
<path fill="#fed5b9" d="
  M 140.38 67.75
  Q 142.14 70.95 145.96 72.31
  A 0.43 0.43 0.0 0 1 146.07 73.06
  L 142.76 75.50
  Q 142.38 75.78 142.23 75.33
  L 139.83 68.02
  Q 140.14 67.70 140.38 67.75
  Z"
/>
<path fill="#2b221c" d="
  M 71.5108 81.7241
  A 9.23 7.51 35.0 0 1 59.6424 82.5818
  A 9.23 7.51 35.0 0 1 56.3892 71.1359
  A 9.23 7.51 35.0 0 1 68.2576 70.2782
  A 9.23 7.51 35.0 0 1 71.5108 81.7241
  Z
  M 70.3773 81.1194
  A 7.94 6.20 36.2 0 0 67.6318 71.4268
  A 7.94 6.20 36.2 0 0 57.5627 71.7406
  A 7.94 6.20 36.2 0 0 60.3082 81.4332
  A 7.94 6.20 36.2 0 0 70.3773 81.1194
  Z"
/>
<path fill="#fbcab5" d="
  M 56.33 117.63
  C 40.34 115.65 33.68 94.91 36.04 81.48
  C 36.92 76.46 39.23 72.92 42.71 69.34
  A 0.21 0.21 0.0 0 1 43.04 69.59
  C 34.74 83.69 42.32 106.68 56.44 114.17
  Q 57.00 114.47 57.00 115.11
  L 57.00 117.03
  Q 57.00 117.71 56.33 117.63
  Z"
/>
<path fill="#fef3e2" d="
  M 70.3773 81.1194
  A 7.94 6.20 36.2 0 1 60.3082 81.4332
  A 7.94 6.20 36.2 0 1 57.5627 71.7406
  A 7.94 6.20 36.2 0 1 67.6318 71.4268
  A 7.94 6.20 36.2 0 1 70.3773 81.1194
  Z
  M 68.6721 79.4883
  A 5.66 4.63 34.9 0 0 66.6790 72.4527
  A 5.66 4.63 34.9 0 0 59.3879 73.0117
  A 5.66 4.63 34.9 0 0 61.3810 80.0473
  A 5.66 4.63 34.9 0 0 68.6721 79.4883
  Z"
/>
<path fill="#020101" d="
  M 68.6721 79.4883
  A 5.66 4.63 34.9 0 1 61.3810 80.0473
  A 5.66 4.63 34.9 0 1 59.3879 73.0117
  A 5.66 4.63 34.9 0 1 66.6790 72.4527
  A 5.66 4.63 34.9 0 1 68.6721 79.4883
  Z
  M 67.6336 78.8878
  A 4.46 3.41 36.1 0 0 66.0392 73.5048
  A 4.46 3.41 36.1 0 0 60.4264 73.6322
  A 4.46 3.41 36.1 0 0 62.0208 79.0152
  A 4.46 3.41 36.1 0 0 67.6336 78.8878
  Z"
/>
<ellipse fill="#854d54" cx="0.00" cy="0.00" transform="translate(64.03,76.26) rotate(36.1)" rx="4.46" ry="3.41"/>
<path fill="#fed5b9" d="
  M 174.46 84.35
  A 0.34 0.34 0.0 0 1 174.43 84.97
  L 167.53 87.56
  A 1.24 1.19 41.6 0 1 166.77 87.59
  L 158.50 85.21
  A 0.32 0.31 -52.3 0 1 158.43 84.64
  C 161.00 83.10 166.46 79.24 166.77 76.04
  A 0.36 0.36 0.0 0 1 167.48 75.98
  Q 169.02 81.78 174.46 84.35
  Z"
/>
<rect fill="#05adec" x="-11.80" y="-3.90" transform="translate(90.60,82.27) rotate(-6.9)" width="23.60" height="7.80" rx="0.77"/>
<path fill="#9ab2be" d="
  M 176.32 94.80
  Q 157.44 86.71 138.93 85.37
  Q 138.01 85.30 138.47 86.11
  L 139.06 87.15
  A 0.53 0.52 -13.4 0 0 139.47 87.40
  Q 152.79 88.25 165.33 92.96
  A 1.13 1.13 0.0 0 1 164.95 95.14
  L 147.75 95.36
  Q 147.33 92.94 145.51 93.25
  C 139.66 94.27 133.96 97.56 128.70 100.21
  Q 128.39 100.36 128.31 100.03
  L 125.71 89.83
  A 0.21 0.20 -56.1 0 0 125.31 89.91
  L 126.29 97.29
  Q 122.17 95.89 119.49 98.25
  L 110.87 90.81
  A 0.39 0.39 0.0 0 1 110.96 90.16
  C 118.44 86.65 125.48 84.67 134.05 84.41
  C 138.73 84.26 143.40 83.96 147.95 84.73
  Q 154.07 85.76 161.51 87.69
  Q 169.57 89.79 176.32 94.80
  Z"
/>
<path fill="#cdd6dc" d="
  M 176.32 94.80
  L 193.27 104.29
  Q 193.70 104.53 193.72 105.03
  L 193.80 107.96
  L 193.73 109.04
  Q 193.70 109.53 193.21 109.48
  Q 188.20 108.94 183.37 110.49
  Q 182.87 110.65 182.37 110.51
  Q 180.02 109.83 179.60 112.43
  Q 174.01 113.19 170.10 118.57
  Q 169.60 119.26 169.27 118.47
  C 166.30 111.13 156.79 97.88 148.33 108.94
  A 0.44 0.44 0.0 0 1 147.54 108.66
  L 147.75 95.36
  L 164.95 95.14
  A 1.13 1.13 0.0 0 0 165.33 92.96
  Q 152.79 88.25 139.47 87.40
  A 0.53 0.52 -13.4 0 1 139.06 87.15
  L 138.47 86.11
  Q 138.01 85.30 138.93 85.37
  Q 157.44 86.71 176.32 94.80
  Z"
/>
<path fill="#fdd089" d="
  M 182.98 86.25
  L 187.76 99.90
  Q 179.26 93.70 169.84 89.01
  A 0.30 0.30 0.0 0 1 169.86 88.46
  L 176.69 85.77
  Q 177.19 85.57 177.71 85.63
  L 182.98 86.25
  Z"
/>
<path fill="#ffffff" d="
  M 122.52 132.72
  L 105.36 145.92
  L 103.03 110.14
  A 3.95 3.95 0.0 0 0 101.66 107.38
  L 81.20 89.66
  A 0.37 0.37 0.0 0 1 81.39 89.01
  L 102.23 86.19
  Q 102.82 86.11 103.27 86.49
  L 119.03 99.89
  A 0.82 0.81 51.2 0 1 118.89 101.23
  Q 113.08 104.36 107.19 107.45
  Q 107.10 107.50 107.07 107.56
  Q 106.96 107.81 107.23 107.70
  L 120.01 102.25
  A 0.58 0.57 -13.4 0 1 120.81 102.74
  L 122.52 132.72
  Z"
/>
<path fill="#ffffff" d="
  M 103.79 146.96
  Q 81.49 146.35 59.14 143.11
  L 58.62 105.15
  A 1.01 0.99 -19.7 0 1 59.01 104.34
  L 78.15 89.92
  Q 78.57 89.60 78.98 89.95
  L 100.33 108.29
  A 3.00 2.96 18.8 0 1 101.36 110.35
  L 103.79 146.96
  Z
  M 62.46 106.13
  L 62.39 107.03
  A 0.15 0.15 0.0 0 0 62.53 107.19
  L 76.99 108.35
  A 20.76 0.60 4.6 0 0 97.73 109.42
  L 97.73 109.42
  A 20.76 0.60 4.6 0 0 77.09 107.16
  L 62.62 105.99
  A 0.15 0.15 0.0 0 0 62.46 106.13
  Z
  M 73.67 133.32
  L 73.79 138.33
  Q 73.82 139.40 74.88 139.55
  L 76.52 139.78
  A 0.62 0.62 0.0 0 0 77.22 139.14
  L 76.66 126.86
  A 0.63 0.62 89.0 0 0 76.05 126.26
  L 72.94 126.24
  Q 72.36 126.24 72.18 126.79
  L 70.50 132.00
  A 0.35 0.34 -42.9 0 1 69.84 131.98
  L 68.52 126.44
  Q 68.36 125.79 67.70 125.73
  L 64.52 125.43
  Q 63.91 125.37 63.88 125.98
  L 63.17 138.06
  Q 63.12 138.75 63.81 138.75
  L 65.59 138.75
  Q 66.18 138.75 66.22 138.16
  L 66.57 133.02
  A 0.24 0.24 0.0 0 1 67.04 132.97
  L 68.50 137.99
  A 1.59 1.59 0.0 0 0 71.55 138.02
  L 73.05 133.23
  A 0.32 0.32 0.0 0 1 73.67 133.32
  Z
  M 79.18 129.98
  Q 78.82 130.44 78.80 130.82
  Q 78.64 133.29 78.80 139.05
  Q 78.81 139.69 79.45 139.76
  L 81.21 139.94
  Q 82.01 140.02 82.01 139.21
  L 82.00 131.35
  A 1.16 1.13 22.5 0 0 81.65 130.53
  L 81.32 130.20
  Q 81.04 129.92 81.32 129.63
  Q 82.10 128.82 82.08 127.40
  A 1.63 1.62 -30.6 0 0 79.04 126.62
  Q 78.30 127.94 79.19 129.19
  Q 79.48 129.59 79.18 129.98
  Z
  M 87.1712 127.1960
  A 0.89 0.89 0.0 0 0 86.2843 126.3029
  L 84.6643 126.2972
  A 0.89 0.89 0.0 0 0 83.7712 127.1841
  L 83.7288 139.3440
  A 0.89 0.89 0.0 0 0 84.6157 140.2371
  L 86.2357 140.2428
  A 0.89 0.89 0.0 0 0 87.1288 139.3559
  L 87.1712 127.1960
  Z
  M 95.34 134.53
  L 97.58 132.30
  A 0.48 0.47 34.2 0 0 97.43 131.53
  Q 94.74 130.38 93.09 132.43
  A 0.54 0.54 0.0 0 1 92.13 132.07
  L 92.28 127.84
  Q 92.30 127.31 91.86 127.01
  Q 90.66 126.15 89.27 126.72
  Q 88.75 126.93 88.75 127.49
  L 88.75 139.78
  Q 88.75 140.37 89.31 140.56
  Q 90.37 140.92 91.46 140.47
  Q 92.02 140.25 92.02 139.65
  L 92.02 138.39
  Q 92.02 138.00 92.41 138.00
  Q 92.59 138.00 92.76 138.00
  A 0.47 0.47 0.0 0 1 93.23 138.36
  Q 94.02 141.89 97.79 141.14
  Q 98.50 141.00 98.13 140.38
  L 95.22 135.46
  A 0.77 0.76 -37.8 0 1 95.34 134.53
  Z"
/>
<path fill="#b8bec3" d="
  M 129.52 107.03
  L 140.38 104.56
  Q 140.47 104.54 140.45 104.44
  Q 140.43 104.29 140.34 104.20
  Q 140.25 104.12 140.02 104.14
  Q 135.86 104.64 131.67 104.99
  Q 131.58 105.00 131.55 104.91
  Q 131.51 104.79 131.47 104.67
  Q 131.45 104.60 131.56 104.57
  L 140.45 101.72
  Q 140.84 101.59 140.50 101.36
  Q 140.30 101.22 140.02 101.31
  Q 134.67 103.10 129.27 103.74
  Q 129.43 103.41 129.60 103.08
  L 141.04 98.34
  Q 141.24 98.25 141.32 98.05
  Q 141.39 97.87 141.39 97.72
  Q 141.38 97.25 140.96 97.48
  Q 136.13 100.10 130.86 100.85
  Q 138.31 96.59 145.99 94.30
  A 0.59 0.58 -8.7 0 1 146.75 94.85
  Q 146.83 97.94 146.24 100.96
  C 145.56 104.48 145.82 106.93 146.26 110.20
  Q 146.32 110.67 146.09 111.08
  L 143.08 116.47
  A 0.81 0.80 22.5 0 1 142.15 116.85
  L 129.28 113.04
  A 1.18 1.04 -74.0 0 1 128.61 111.62
  Q 128.66 111.41 129.05 111.20
  Q 129.29 111.07 129.60 111.09
  Q 134.12 111.46 138.59 112.18
  Q 139.04 112.25 138.70 111.96
  Q 138.51 111.79 138.25 111.73
  Q 133.63 110.66 129.20 110.01
  A 0.54 0.54 0.0 0 1 129.25 108.94
  L 140.91 108.39
  Q 140.99 108.38 141.05 108.32
  Q 141.15 108.23 141.24 108.13
  A 0.08 0.08 0.0 0 0 141.18 107.99
  L 129.23 107.95
  A 0.28 0.27 -81.4 0 1 128.97 107.59
  Q 129.14 107.00 129.52 107.03
  Z"
/>
<path fill="#b8bec3" d="
  M 216.48 116.29
  L 209.07 115.25
  L 199.60 112.21
  L 197.43 111.90
  Q 196.28 111.74 197.38 111.34
  C 200.55 110.21 204.94 111.81 209.46 112.88
  Q 210.28 113.07 209.65 112.60
  Q 209.46 112.46 209.17 112.38
  C 205.68 111.41 200.16 109.59 197.35 110.29
  Q 195.04 110.87 195.51 109.40
  L 206.97 108.66
  Q 207.12 108.65 207.17 108.51
  Q 207.21 108.38 207.25 108.25
  Q 207.32 108.06 207.11 108.06
  L 195.82 108.12
  Q 195.49 107.98 195.49 107.56
  Q 195.49 107.12 195.92 107.07
  Q 203.34 106.16 210.63 104.43
  Q 213.68 103.70 210.55 103.96
  Q 205.75 104.37 199.18 106.05
  C 197.68 106.43 196.81 106.11 195.50 105.48
  A 0.97 0.96 -39.7 0 1 195.67 103.68
  C 202.91 101.73 209.26 98.58 216.42 96.12
  A 1.16 1.16 0.0 0 1 217.85 97.71
  C 216.32 101.00 213.64 105.47 213.57 109.01
  C 213.53 111.27 215.50 113.91 216.48 116.29
  Z
  M 210.78 100.28
  L 197.76 104.64
  A 0.16 0.16 0.0 0 0 197.80 104.95
  C 201.33 105.15 208.08 101.86 211.91 100.46
  A 0.53 0.52 56.8 0 0 212.09 99.59
  Q 211.33 98.86 211.21 99.77
  Q 211.15 100.16 210.78 100.28
  Z"
/>
<path fill="#cdd6dc" d="
  M 126.29 97.29
  Q 128.40 109.19 126.47 121.18
  Q 125.69 123.52 123.77 123.80
  Q 123.38 109.79 122.50 102.50
  Q 122.21 100.05 119.49 98.25
  Q 122.17 95.89 126.29 97.29
  Z"
/>
<path fill="#2b221c" d="
  M 129.60 103.08
  Q 128.22 100.64 130.86 100.85
  Q 136.13 100.10 140.96 97.48
  Q 141.38 97.25 141.39 97.72
  Q 141.39 97.87 141.32 98.05
  Q 141.24 98.25 141.04 98.34
  L 129.60 103.08
  Z"
/>
<path fill="#2b221c" d="
  M 211.21 99.77
  Q 211.33 98.86 212.09 99.59
  A 0.53 0.52 56.8 0 1 211.91 100.46
  C 208.08 101.86 201.33 105.15 197.80 104.95
  A 0.16 0.16 0.0 0 1 197.76 104.64
  L 210.78 100.28
  Q 211.15 100.16 211.21 99.77
  Z"
/>
<path fill="#2b221c" d="
  M 129.52 107.03
  Q 127.67 102.09 129.27 103.74
  Q 134.67 103.10 140.02 101.31
  Q 140.30 101.22 140.50 101.36
  Q 140.84 101.59 140.45 101.72
  L 131.56 104.57
  Q 131.45 104.60 131.47 104.67
  Q 131.51 104.79 131.55 104.91
  Q 131.58 105.00 131.67 104.99
  Q 135.86 104.64 140.02 104.14
  Q 140.25 104.12 140.34 104.20
  Q 140.43 104.29 140.45 104.44
  Q 140.47 104.54 140.38 104.56
  L 129.52 107.03
  Z"
/>
<path fill="#fed5b9" d="
  M 148.80 110.28
  C 157.63 99.01 166.08 113.27 168.32 121.09
  Q 168.46 121.55 168.24 121.98
  C 164.95 128.44 162.68 135.47 164.20 141.97
  A 0.56 0.56 0.0 0 1 163.15 142.33
  C 159.87 135.10 149.10 131.08 141.86 130.14
  A 0.74 0.73 6.4 0 1 141.22 129.34
  Q 142.41 118.44 148.80 110.28
  Z"
/>
<path fill="#2b221c" d="
  M 62.46 106.13
  A 0.15 0.15 0.0 0 1 62.62 105.99
  L 77.09 107.16
  A 20.76 0.60 4.6 0 1 97.73 109.42
  L 97.73 109.42
  A 20.76 0.60 4.6 0 1 76.99 108.35
  L 62.53 107.19
  A 0.15 0.15 0.0 0 1 62.39 107.03
  L 62.46 106.13
  Z"
/>
<path fill="#b8bec3" d="
  M 193.80 107.96
  Q 194.24 109.85 193.61 111.58
  Q 193.43 112.07 192.90 112.08
  Q 188.74 112.14 184.80 113.58
  A 1.12 1.07 -46.3 0 1 184.14 113.61
  L 179.60 112.43
  Q 180.02 109.83 182.37 110.51
  Q 182.87 110.65 183.37 110.49
  Q 188.20 108.94 193.21 109.48
  Q 193.70 109.53 193.73 109.04
  L 193.80 107.96
  Z"
/>
<path fill="#2b221c" d="
  M 195.51 109.40
  L 195.82 108.12
  L 207.11 108.06
  Q 207.32 108.06 207.25 108.25
  Q 207.21 108.38 207.17 108.51
  Q 207.12 108.65 206.97 108.66
  L 195.51 109.40
  Z"
/>
<path fill="#2b221c" d="
  M 199.60 112.21
  L 209.07 115.25
  Q 205.60 114.69 202.20 113.64
  Q 201.63 113.47 201.33 113.70
  Q 201.00 113.94 200.74 114.48
  Q 199.40 114.43 198.41 113.81
  Q 197.98 113.54 198.43 113.31
  Q 199.18 112.91 199.60 112.21
  Z"
/>
<path fill="#919294" d="
  M 209.07 115.25
  L 216.48 116.29
  L 218.49 120.32
  A 0.78 0.78 0.0 0 1 217.50 121.39
  L 200.74 114.48
  Q 201.00 113.94 201.33 113.70
  Q 201.63 113.47 202.20 113.64
  Q 205.60 114.69 209.07 115.25
  Z"
/>
<path fill="#fed5b9" d="
  M 184.06 115.44
  C 191.13 121.99 197.69 136.85 192.10 146.08
  C 188.96 151.27 182.20 153.04 176.41 151.94
  C 152.74 147.46 172.67 104.88 184.06 115.44
  Z"
/>
<path fill="#b8bec3" d="
  M 140.47 123.48
  Q 133.13 124.46 128.50 124.00
  Q 127.12 123.86 127.50 121.50
  L 128.57 114.88
  A 0.47 0.47 0.0 0 1 129.18 114.50
  L 141.56 118.35
  Q 142.06 118.51 141.90 119.01
  L 140.47 123.48
  Z"
/>
<path fill="#fdd089" d="
  M 57.17 136.75
  Q 56.97 137.71 56.26 137.54
  C 53.17 135.62 50.86 121.47 51.21 118.36
  L 56.43 119.41
  A 0.64 0.63 5.1 0 1 56.95 120.02
  L 57.17 136.75
  Z"
/>
<path fill="#919294" d="
  M 126.47 121.18
  Q 127.03 121.22 127.50 121.50
  Q 127.12 123.86 128.50 124.00
  Q 133.13 124.46 140.47 123.48
  L 139.57 128.35
  Q 139.42 129.12 138.65 129.12
  L 124.86 129.22
  A 0.78 0.77 -1.9 0 1 124.07 128.49
  L 123.77 123.80
  Q 125.69 123.52 126.47 121.18
  Z"
/>
<path fill="#05adec" d="
  M 73.05 133.23
  L 71.55 138.02
  A 1.59 1.59 0.0 0 1 68.50 137.99
  L 67.04 132.97
  A 0.24 0.24 0.0 0 0 66.57 133.02
  L 66.22 138.16
  Q 66.18 138.75 65.59 138.75
  L 63.81 138.75
  Q 63.12 138.75 63.17 138.06
  L 63.88 125.98
  Q 63.91 125.37 64.52 125.43
  L 67.70 125.73
  Q 68.36 125.79 68.52 126.44
  L 69.84 131.98
  A 0.35 0.34 -42.9 0 0 70.50 132.00
  L 72.18 126.79
  Q 72.36 126.24 72.94 126.24
  L 76.05 126.26
  A 0.63 0.62 89.0 0 1 76.66 126.86
  L 77.22 139.14
  A 0.62 0.62 0.0 0 1 76.52 139.78
  L 74.88 139.55
  Q 73.82 139.40 73.79 138.33
  L 73.67 133.32
  A 0.32 0.32 0.0 0 0 73.05 133.23
  Z"
/>
<path fill="#05adec" d="
  M 79.19 129.19
  Q 78.30 127.94 79.04 126.62
  A 1.63 1.62 -30.6 0 1 82.08 127.40
  Q 82.10 128.82 81.32 129.63
  Q 81.04 129.92 81.32 130.20
  L 81.65 130.53
  A 1.16 1.13 22.5 0 1 82.00 131.35
  L 82.01 139.21
  Q 82.01 140.02 81.21 139.94
  L 79.45 139.76
  Q 78.81 139.69 78.80 139.05
  Q 78.64 133.29 78.80 130.82
  Q 78.82 130.44 79.18 129.98
  Q 79.48 129.59 79.19 129.19
  Z"
/>
<rect fill="#05adec" x="-1.70" y="-6.97" transform="translate(85.45,133.27) rotate(0.2)" width="3.40" height="13.94" rx="0.89"/>
<path fill="#05adec" d="
  M 95.22 135.46
  L 98.13 140.38
  Q 98.50 141.00 97.79 141.14
  Q 94.02 141.89 93.23 138.36
  A 0.47 0.47 0.0 0 0 92.76 138.00
  Q 92.59 138.00 92.41 138.00
  Q 92.02 138.00 92.02 138.39
  L 92.02 139.65
  Q 92.02 140.25 91.46 140.47
  Q 90.37 140.92 89.31 140.56
  Q 88.75 140.37 88.75 139.78
  L 88.75 127.49
  Q 88.75 126.93 89.27 126.72
  Q 90.66 126.15 91.86 127.01
  Q 92.30 127.31 92.28 127.84
  L 92.13 132.07
  A 0.54 0.54 0.0 0 0 93.09 132.43
  Q 94.74 130.38 97.43 131.53
  A 0.48 0.47 34.2 0 1 97.58 132.30
  L 95.34 134.53
  A 0.77 0.76 -37.8 0 0 95.22 135.46
  Z"
/>
<path fill="#fdd089" d="
  M 131.75 130.88
  A 0.20 0.20 0.0 0 1 131.81 131.27
  Q 127.09 132.76 124.62 137.14
  A 0.26 0.26 0.0 0 1 124.13 137.01
  L 124.21 131.39
  A 0.64 0.64 0.0 0 1 124.86 130.76
  L 131.75 130.88
  Z"
/>
<path fill="#fed5b9" d="
  M 124.31 148.27
  C 120.65 118.23 167.74 134.79 161.56 148.10
  C 156.12 159.80 126.75 168.25 124.31 148.27
  Z"
/>
<path fill="#05adec" d="
  M 122.52 132.72
  L 122.07 138.77
  Q 122.03 139.30 121.66 139.67
  L 106.82 154.57
  A 0.60 0.59 -24.3 0 1 105.80 154.19
  L 105.36 145.92
  L 122.52 132.72
  Z"
/>
<path fill="#c3986c" d="
  M 57.17 136.75
  Q 57.89 139.08 57.48 140.61
  L 56.26 137.54
  Q 56.97 137.71 57.17 136.75
  Z"
/>
<path fill="#fdd089" d="
  M 174.24 153.03
  Q 173.31 153.26 172.43 153.07
  Q 171.92 152.96 171.57 153.35
  Q 165.06 160.75 156.95 166.36
  Q 156.54 166.64 156.48 167.14
  Q 156.46 167.32 156.45 167.50
  L 156.24 167.64
  Q 155.91 167.87 155.63 167.59
  C 152.60 164.52 146.14 160.91 142.93 165.85
  A 0.96 0.94 48.8 0 0 142.88 166.77
  L 145.11 171.23
  L 144.21 172.02
  L 142.74 172.23
  Q 141.95 172.33 141.97 171.32
  C 142.98 165.60 129.01 163.84 126.68 169.29
  Q 125.12 172.95 129.00 175.55
  L 128.98 176.00
  Q 127.77 177.48 125.20 177.32
  Q 125.09 177.54 124.79 177.54
  Q 124.31 177.55 124.31 177.06
  C 124.35 172.38 121.76 169.28 117.26 168.25
  Q 114.17 167.54 112.45 167.95
  Q 103.32 170.11 94.42 167.12
  Q 93.86 166.93 94.04 166.36
  Q 95.10 163.06 93.53 160.08
  A 1.11 1.09 83.9 0 0 92.86 159.53
  Q 88.88 158.37 84.82 158.37
  C 81.70 158.37 78.19 159.81 74.83 160.32
  Q 72.34 160.69 70.69 159.84
  Q 68.89 156.97 68.91 155.78
  Q 68.96 155.61 68.99 155.45
  Q 69.07 155.11 69.40 155.04
  L 70.27 154.87
  Q 93.99 157.73 104.25 158.25
  Q 105.68 158.33 107.36 156.60
  Q 115.00 148.72 122.65 140.83
  Q 123.06 140.41 123.01 141.00
  C 122.88 142.74 122.43 144.68 122.52 146.31
  C 123.99 173.20 163.11 160.51 163.87 144.59
  A 0.48 0.48 0.0 0 1 164.80 144.45
  Q 167.15 150.74 174.24 153.03
  Z"
/>
<path fill="#05adec" d="
  M 59.14 143.11
  Q 81.49 146.35 103.79 146.96
  L 104.26 155.46
  Q 104.33 156.68 103.11 156.56
  L 60.56 152.24
  A 1.35 1.34 2.2 0 1 59.35 150.94
  L 59.14 143.11
  Z"
/>
<path fill="#2b221c" d="
  M 70.27 154.87
  L 69.40 155.04
  Q 69.07 155.11 68.99 155.45
  Q 68.96 155.61 68.91 155.78
  Q 68.11 155.03 66.69 154.54
  Q 67.97 154.01 70.27 154.87
  Z"
/>
<path fill="#2b221c" d="
  M 70.69 159.84
  Q 72.34 160.69 74.83 160.32
  C 78.19 159.81 81.70 158.37 84.82 158.37
  Q 88.88 158.37 92.86 159.53
  A 1.11 1.09 83.9 0 1 93.53 160.08
  Q 95.10 163.06 94.04 166.36
  Q 93.86 166.93 94.42 167.12
  Q 103.32 170.11 112.45 167.95
  Q 114.17 167.54 117.26 168.25
  C 121.76 169.28 124.35 172.38 124.31 177.06
  Q 124.31 177.55 124.79 177.54
  Q 125.09 177.54 125.20 177.32
  C 123.27 182.78 120.27 187.22 113.74 185.27
  C 111.63 184.63 108.97 182.53 106.50 182.05
  C 102.15 181.20 98.22 183.66 93.94 184.27
  C 91.26 184.66 88.84 183.54 86.14 183.43
  A 2.58 2.58 0.0 0 1 83.66 180.94
  L 83.50 176.22
  Q 83.48 175.66 82.95 175.50
  C 80.25 174.65 78.03 173.52 75.21 173.43
  C 69.87 173.27 64.35 174.61 59.22 172.99
  C 50.11 170.12 53.07 153.92 63.93 156.89
  Q 67.20 157.78 70.69 159.84
  Z
  M 90.68 163.54
  Q 89.17 159.06 83.93 159.94
  C 78.00 160.94 73.55 163.51 67.96 159.97
  C 63.96 157.43 58.78 155.56 56.00 160.97
  Q 53.33 166.16 57.34 170.51
  C 60.31 173.75 69.78 171.76 73.72 171.56
  C 77.23 171.38 80.27 172.61 83.55 173.58
  A 1.45 1.45 0.0 0 0 85.21 172.92
  Q 87.41 169.16 91.51 167.63
  Q 92.04 167.44 92.26 166.91
  C 92.76 165.69 93.49 160.96 91.18 160.72
  A 0.44 0.43 73.4 0 0 90.80 161.43
  Q 91.56 162.37 91.31 163.50
  Q 91.05 164.64 90.68 163.54
  Z
  M 87.64 179.72
  Q 88.24 180.17 88.48 180.92
  Q 88.63 181.40 89.10 181.59
  C 94.90 183.96 99.90 180.09 105.83 180.13
  C 109.74 180.16 112.58 184.15 116.35 184.32
  C 124.69 184.71 125.55 170.52 116.72 169.36
  C 110.02 168.49 104.63 171.38 97.54 169.43
  Q 90.29 167.43 86.23 174.27
  C 85.81 174.98 85.98 175.97 86.18 176.73
  A 0.19 0.19 0.0 0 1 85.91 176.95
  L 85.63 176.80
  Q 85.30 176.62 85.19 176.98
  Q 84.34 179.77 86.20 181.61
  Q 86.64 182.03 87.04 181.58
  Q 87.51 181.05 86.97 180.49
  A 0.51 0.51 0.0 0 1 87.64 179.72
  Z"
/>
<path fill="#c3986c" d="
  M 91.31 163.50
  Q 91.56 162.37 90.80 161.43
  A 0.44 0.43 73.4 0 1 91.18 160.72
  C 93.49 160.96 92.76 165.69 92.26 166.91
  Q 92.04 167.44 91.51 167.63
  Q 87.41 169.16 85.21 172.92
  A 1.45 1.45 0.0 0 1 83.55 173.58
  C 80.27 172.61 77.23 171.38 73.72 171.56
  C 69.78 171.76 60.31 173.75 57.34 170.51
  Q 53.33 166.16 56.00 160.97
  C 58.78 155.56 63.96 157.43 67.96 159.97
  C 73.55 163.51 78.00 160.94 83.93 159.94
  Q 89.17 159.06 90.68 163.54
  Q 91.05 164.64 91.31 163.50
  Z
  M 64.94 161.30
  Q 63.55 160.11 61.74 159.96
  A 0.36 0.36 0.0 0 0 61.52 160.63
  Q 63.36 161.77 64.46 162.16
  Q 67.02 163.08 64.94 161.30
  Z
  M 77.09 164.63
  L 85.64 163.40
  A 0.17 0.17 0.0 0 0 85.79 163.20
  L 85.78 163.16
  A 4.31 1.41 -8.2 0 0 81.31 162.38
  L 80.96 162.43
  A 4.31 1.41 -8.2 0 0 76.89 164.44
  L 76.90 164.48
  A 0.17 0.17 0.0 0 0 77.09 164.63
  Z
  M 64.28 164.05
  L 58.95 163.41
  A 0.21 0.20 -21.3 0 0 58.79 163.77
  Q 61.24 165.87 64.34 164.48
  A 0.23 0.22 -53.2 0 0 64.28 164.05
  Z
  M 82.40 167.65
  Q 80.18 167.15 77.95 167.26
  Q 76.04 167.35 77.80 168.11
  Q 82.15 170.00 85.93 167.53
  A 0.43 0.42 17.7 0 0 85.54 166.78
  L 83.53 167.56
  Q 82.98 167.78 82.40 167.65
  Z
  M 63.3788 169.6811
  A 0.45 0.45 0.0 0 0 63.0959 169.1110
  L 58.2622 167.4843
  A 0.45 0.45 0.0 0 0 57.6922 167.7673
  L 57.6412 167.9189
  A 0.45 0.45 0.0 0 0 57.9241 168.4890
  L 62.7578 170.1157
  A 0.45 0.45 0.0 0 0 63.3278 169.8327
  L 63.3788 169.6811
  Z
  M 86.17 169.59
  L 81.24 171.03
  A 0.14 0.14 0.0 0 0 81.14 171.20
  L 81.14 171.21
  A 2.58 1.33 -16.2 0 0 83.99 171.77
  L 84.24 171.69
  A 2.58 1.33 -16.2 0 0 86.35 169.70
  L 86.35 169.69
  A 0.14 0.14 0.0 0 0 86.17 169.59
  Z"
/>
<path fill="#2b221c" d="
  M 64.94 161.30
  Q 67.02 163.08 64.46 162.16
  Q 63.36 161.77 61.52 160.63
  A 0.36 0.36 0.0 0 1 61.74 159.96
  Q 63.55 160.11 64.94 161.30
  Z"
/>
<path fill="#854d54" d="
  M 77.09 164.63
  A 0.17 0.17 0.0 0 1 76.90 164.48
  L 76.89 164.44
  A 4.31 1.41 -8.2 0 1 80.96 162.43
  L 81.31 162.38
  A 4.31 1.41 -8.2 0 1 85.78 163.16
  L 85.79 163.20
  A 0.17 0.17 0.0 0 1 85.64 163.40
  L 77.09 164.63
  Z"
/>
<path fill="#2b221c" d="
  M 64.28 164.05
  A 0.23 0.22 -53.2 0 1 64.34 164.48
  Q 61.24 165.87 58.79 163.77
  A 0.21 0.20 -21.3 0 1 58.95 163.41
  L 64.28 164.05
  Z"
/>
<path fill="#020101" d="
  M 156.45 167.50
  Q 156.53 168.65 157.29 169.75
  Q 157.56 170.16 157.57 170.66
  Q 157.63 174.71 154.30 175.84
  C 151.16 176.91 148.03 174.82 145.93 172.56
  Q 146.16 171.82 145.80 171.45
  Q 145.53 171.16 145.11 171.23
  L 142.88 166.77
  A 0.96 0.94 48.8 0 1 142.93 165.85
  C 146.14 160.91 152.60 164.52 155.63 167.59
  Q 155.91 167.87 156.24 167.64
  L 156.45 167.50
  Z
  M 152.41 175.12
  C 153.84 174.18 156.31 174.41 156.55 172.04
  C 157.00 167.58 148.58 162.91 144.80 165.25
  A 1.56 1.56 0.0 0 0 144.15 167.12
  Q 146.00 172.15 150.71 174.53
  A 1.09 0.01 44.2 0 1 151.49 175.28
  Q 151.96 175.73 152.67 175.42
  A 0.06 0.06 0.0 0 0 152.67 175.31
  Q 152.55 175.27 152.43 175.23
  Q 152.31 175.19 152.41 175.12
  Z"
/>
<path fill="#c79bad" d="
  M 152.43 175.23
  Q 152.55 175.27 152.67 175.31
  A 0.06 0.06 0.0 0 1 152.67 175.42
  Q 151.96 175.73 151.49 175.28
  A 1.09 0.01 44.2 0 0 150.71 174.53
  Q 146.00 172.15 144.15 167.12
  A 1.56 1.56 0.0 0 1 144.80 165.25
  C 148.58 162.91 157.00 167.58 156.55 172.04
  C 156.31 174.41 153.84 174.18 152.41 175.12
  Q 152.31 175.19 152.43 175.23
  Z"
/>
<path fill="#020101" d="
  M 141.97 171.32
  L 137.15 175.69
  Q 136.76 176.04 136.26 175.92
  Q 134.79 175.59 133.53 175.91
  L 129.00 175.55
  Q 125.12 172.95 126.68 169.29
  C 129.01 163.84 142.98 165.60 141.97 171.32
  Z
  M 127.61 168.74
  L 127.61 172.80
  A 1.83 1.83 0.0 0 0 129.43 174.63
  L 132.72 174.64
  A 8.20 3.84 0.1 0 0 140.93 170.81
  L 140.93 170.77
  A 8.20 3.84 0.1 0 0 132.74 166.92
  L 129.45 166.91
  A 1.83 1.83 0.0 0 0 127.61 168.74
  Z"
/>
<path fill="#854d54" d="
  M 83.53 167.56
  L 85.54 166.78
  A 0.43 0.42 17.7 0 1 85.93 167.53
  Q 82.15 170.00 77.80 168.11
  Q 76.04 167.35 77.95 167.26
  Q 80.18 167.15 82.40 167.65
  Q 82.98 167.78 83.53 167.56
  Z"
/>
<path fill="#c79bad" d="
  M 127.61 168.74
  A 1.83 1.83 0.0 0 1 129.45 166.91
  L 132.74 166.92
  A 8.20 3.84 0.1 0 1 140.93 170.77
  L 140.93 170.81
  A 8.20 3.84 0.1 0 1 132.72 174.64
  L 129.43 174.63
  A 1.83 1.83 0.0 0 1 127.61 172.80
  L 127.61 168.74
  Z"
/>
<rect fill="#2b221c" x="-3.00" y="-0.53" transform="translate(60.51,168.80) rotate(18.6)" width="6.00" height="1.06" rx="0.45"/>
<path fill="#c3986c" d="
  M 86.97 180.49
  Q 87.51 181.05 87.04 181.58
  Q 86.64 182.03 86.20 181.61
  Q 84.34 179.77 85.19 176.98
  Q 85.30 176.62 85.63 176.80
  L 85.91 176.95
  A 0.19 0.19 0.0 0 0 86.18 176.73
  C 85.98 175.97 85.81 174.98 86.23 174.27
  Q 90.29 167.43 97.54 169.43
  C 104.63 171.38 110.02 168.49 116.72 169.36
  C 125.55 170.52 124.69 184.71 116.35 184.32
  C 112.58 184.15 109.74 180.16 105.83 180.13
  C 99.90 180.09 94.90 183.96 89.10 181.59
  Q 88.63 181.40 88.48 180.92
  Q 88.24 180.17 87.64 179.72
  A 0.51 0.51 0.0 0 0 86.97 180.49
  Z
  M 96.6154 171.1430
  A 2.38 0.61 -12.3 0 0 94.1601 171.0540
  A 2.38 0.61 -12.3 0 0 91.9646 172.1570
  A 2.38 0.61 -12.3 0 0 94.4199 172.2460
  A 2.38 0.61 -12.3 0 0 96.6154 171.1430
  Z
  M 120.3635 173.5677
  A 0.26 0.26 0.0 0 0 120.1632 173.2594
  L 114.2356 171.9994
  A 0.26 0.26 0.0 0 0 113.9272 172.1997
  L 113.8565 172.5323
  A 0.26 0.26 0.0 0 0 114.0568 172.8406
  L 119.9844 174.1006
  A 0.26 0.26 0.0 0 0 120.2928 173.9003
  L 120.3635 173.5677
  Z
  M 100.74 174.38
  Q 95.93 172.72 91.81 175.17
  A 0.28 0.27 20.8 0 0 92.04 175.67
  L 94.56 174.91
  Q 94.93 174.80 95.31 174.86
  Q 98.04 175.24 100.72 174.71
  Q 101.33 174.59 100.74 174.38
  Z
  M 119.17 178.00
  Q 116.87 176.60 114.25 177.23
  A 0.19 0.19 0.0 0 0 114.26 177.61
  L 118.97 178.53
  A 0.29 0.29 0.0 0 0 119.17 178.00
  Z
  M 92.67 179.49
  L 92.83 180.36
  A 0.16 0.16 0.0 0 0 93.02 180.49
  L 93.23 180.45
  A 8.67 0.53 -10.4 0 0 101.66 178.36
  L 101.63 178.23
  A 8.67 0.53 -10.4 0 0 93.01 179.27
  L 92.80 179.31
  A 0.16 0.16 0.0 0 0 92.67 179.49
  Z
  M 117.1522 182.0649
  A 2.51 0.56 24.6 0 0 115.1031 180.5108
  A 2.51 0.56 24.6 0 0 112.5878 179.9751
  A 2.51 0.56 24.6 0 0 114.6369 181.5292
  A 2.51 0.56 24.6 0 0 117.1522 182.0649
  Z"
/>
<path fill="#2b221c" d="
  M 86.17 169.59
  A 0.14 0.14 0.0 0 1 86.35 169.69
  L 86.35 169.70
  A 2.58 1.33 -16.2 0 1 84.24 171.69
  L 83.99 171.77
  A 2.58 1.33 -16.2 0 1 81.14 171.21
  L 81.14 171.20
  A 0.14 0.14 0.0 0 1 81.24 171.03
  L 86.17 169.59
  Z"
/>
<ellipse fill="#2b221c" cx="0.00" cy="0.00" transform="translate(94.29,171.65) rotate(-12.3)" rx="2.38" ry="0.61"/>
<path fill="#c3986c" d="
  M 141.97 171.32
  Q 141.95 172.33 142.74 172.23
  L 141.27 173.73
  Q 140.17 173.90 140.32 174.79
  Q 139.45 175.70 139.72 176.27
  Q 136.58 175.79 134.83 177.29
  L 133.64 177.30
  Q 133.22 177.31 133.24 176.88
  Q 133.26 176.42 133.53 175.91
  Q 134.79 175.59 136.26 175.92
  Q 136.76 176.04 137.15 175.69
  L 141.97 171.32
  Z"
/>
<path fill="#2b221c" d="
  M 145.11 171.23
  Q 145.53 171.16 145.80 171.45
  Q 146.16 171.82 145.93 172.56
  Q 145.03 172.00 144.21 172.02
  L 145.11 171.23
  Z"
/>
<path fill="#020101" d="
  M 144.21 172.02
  Q 144.69 172.91 144.16 173.12
  Q 142.77 173.68 141.27 173.73
  L 142.74 172.23
  L 144.21 172.02
  Z"
/>
<rect fill="#2b221c" x="-3.29" y="-0.43" transform="translate(117.11,173.05) rotate(12.0)" width="6.58" height="0.86" rx="0.26"/>
<path fill="#2b221c" d="
  M 100.74 174.38
  Q 101.33 174.59 100.72 174.71
  Q 98.04 175.24 95.31 174.86
  Q 94.93 174.80 94.56 174.91
  L 92.04 175.67
  A 0.28 0.27 20.8 0 1 91.81 175.17
  Q 95.93 172.72 100.74 174.38
  Z"
/>
<path fill="#2b221c" d="
  M 140.32 174.79
  C 142.16 177.65 148.66 175.70 147.67 181.14
  C 146.62 186.87 133.95 188.29 131.57 181.52
  A 0.88 0.86 -44.5 0 1 131.58 180.96
  L 132.97 177.21
  Q 133.23 176.50 132.48 176.41
  L 128.98 176.00
  L 129.00 175.55
  L 133.53 175.91
  Q 133.26 176.42 133.24 176.88
  Q 133.22 177.31 133.64 177.30
  L 134.83 177.29
  L 132.85 179.26
  Q 132.53 179.57 132.51 180.02
  C 132.23 186.34 145.97 186.05 146.52 179.62
  Q 146.56 179.15 146.12 178.97
  L 139.72 176.27
  Q 139.45 175.70 140.32 174.79
  Z"
/>
<path fill="#c79bad" d="
  M 139.72 176.27
  L 146.12 178.97
  Q 146.56 179.15 146.52 179.62
  C 145.97 186.05 132.23 186.34 132.51 180.02
  Q 132.53 179.57 132.85 179.26
  L 134.83 177.29
  Q 136.58 175.79 139.72 176.27
  Z"
/>
<path fill="#2b221c" d="
  M 119.17 178.00
  A 0.29 0.29 0.0 0 1 118.97 178.53
  L 114.26 177.61
  A 0.19 0.19 0.0 0 1 114.25 177.23
  Q 116.87 176.60 119.17 178.00
  Z"
/>
<path fill="#2b221c" d="
  M 92.67 179.49
  A 0.16 0.16 0.0 0 1 92.80 179.31
  L 93.01 179.27
  A 8.67 0.53 -10.4 0 1 101.63 178.23
  L 101.66 178.36
  A 8.67 0.53 -10.4 0 1 93.23 180.45
  L 93.02 180.49
  A 0.16 0.16 0.0 0 1 92.83 180.36
  L 92.67 179.49
  Z"
/>
<ellipse fill="#2b221c" cx="0.00" cy="0.00" transform="translate(114.87,181.02) rotate(24.6)" rx="2.51" ry="0.56"/>
</svg>
