<?xml version="1.0" encoding="UTF-8" standalone="no"?>
<!DOCTYPE svg PUBLIC "-//W3C//DTD SVG 1.1//EN" "http://www.w3.org/Graphics/SVG/1.1/DTD/svg11.dtd">
<svg xmlns="http://www.w3.org/2000/svg" version="1.1" viewBox="0.00 0.00 512.00 512.00">
<path fill="#000000" d="
  M 239.90 63.99
  A 47.90 47.90 0.0 0 1 192.00 111.89
  A 47.90 47.90 0.0 0 1 144.10 63.99
  A 47.90 47.90 0.0 0 1 192.00 16.09
  A 47.90 47.90 0.0 0 1 239.90 63.99
  Z
  M 223.92 63.99
  A 31.93 31.93 0.0 0 0 191.99 32.06
  A 31.93 31.93 0.0 0 0 160.06 63.99
  A 31.93 31.93 0.0 0 0 191.99 95.92
  A 31.93 31.93 0.0 0 0 223.92 63.99
  Z"
/>
<path fill="#000000" d="
  M 112.50 182.33
  L 77.01 193.54
  Q 76.52 193.70 76.40 194.19
  Q 70.84 215.83 65.32 237.40
  Q 62.29 249.24 59.71 253.04
  C 50.14 267.16 29.75 266.54 20.14 252.85
  C 15.10 245.67 15.50 238.81 17.73 229.84
  Q 24.41 202.91 31.25 176.04
  C 34.18 164.50 36.74 158.38 47.20 153.70
  Q 75.56 141.01 103.99 128.47
  Q 123.30 119.95 144.42 121.54
  Q 180.00 124.22 215.57 127.22
  C 227.70 128.24 232.83 128.15 241.03 134.96
  Q 257.71 148.80 273.97 162.43
  A 1.29 1.28 -39.3 0 0 275.41 162.57
  Q 295.73 151.43 314.73 141.21
  Q 318.04 139.43 322.70 139.17
  C 343.81 138.00 357.02 162.66 342.61 178.79
  Q 339.55 182.22 330.66 187.14
  Q 312.21 197.34 293.71 207.45
  C 279.82 215.04 271.90 219.95 258.30 211.53
  Q 245.36 203.52 232.39 195.64
  C 224.17 190.63 231.51 176.46 241.91 182.78
  Q 255.38 190.95 268.78 199.23
  C 270.52 200.31 273.85 200.04 275.88 198.94
  Q 301.42 185.02 326.86 170.94
  C 338.46 164.52 330.06 150.86 319.64 156.59
  Q 299.36 167.74 279.02 178.78
  Q 272.80 182.15 268.04 178.20
  Q 248.35 161.87 228.94 145.74
  A 7.45 7.43 67.2 0 0 224.84 144.06
  Q 187.03 140.77 148.30 137.74
  C 134.41 136.65 123.24 137.43 111.58 142.60
  Q 81.54 155.89 51.55 169.28
  C 49.83 170.05 48.42 173.46 47.87 175.62
  Q 40.05 206.56 32.24 237.50
  C 30.25 245.42 40.47 251.03 45.93 244.65
  Q 47.36 242.99 48.39 238.99
  Q 55.12 212.79 61.85 186.58
  Q 63.27 181.08 68.25 179.51
  Q 93.62 171.55 118.99 163.62
  Q 122.67 162.47 125.10 163.06
  C 131.69 164.66 131.37 170.34 130.36 176.16
  Q 123.12 217.56 116.02 259.00
  Q 114.35 268.74 114.82 273.21
  C 116.39 288.23 128.55 299.81 143.40 301.53
  Q 144.40 301.65 149.10 301.69
  C 151.64 301.72 154.52 302.13 156.73 302.24
  Q 186.32 303.63 215.91 305.07
  C 226.12 305.56 230.14 308.87 226.43 319.12
  Q 215.82 348.49 205.24 377.86
  Q 201.77 387.48 201.65 391.58
  C 201.34 401.46 208.02 411.14 217.31 414.49
  Q 221.39 415.95 230.98 415.99
  Q 243.89 416.03 256.86 415.99
  A 0.82 0.81 -79.5 0 0 257.62 415.46
  C 263.47 400.66 280.85 395.58 294.00 404.53
  Q 294.41 404.81 294.82 404.54
  L 352.35 366.18
  Q 352.79 365.89 352.68 365.37
  C 349.31 349.18 360.71 336.82 376.45 335.88
  Q 377.03 335.84 377.25 335.30
  L 455.87 138.80
  Q 456.13 138.15 455.65 137.65
  C 443.08 124.54 446.60 103.16 464.55 97.29
  C 482.42 91.44 499.57 107.45 495.32 125.70
  C 492.77 136.61 482.69 143.79 471.71 144.01
  Q 470.99 144.02 470.72 144.69
  L 392.00 341.50
  A 0.76 0.75 -57.7 0 0 392.18 342.33
  C 413.66 362.62 387.49 395.97 362.15 379.50
  Q 361.70 379.21 361.25 379.50
  L 304.06 417.60
  A 1.28 1.27 -21.6 0 0 303.50 418.88
  C 308.44 448.02 269.36 459.75 257.57 432.53
  Q 257.34 432.00 256.75 432.00
  L 204.01 432.00
  A 0.87 0.85 -69.1 0 0 203.36 432.30
  Q 178.57 460.67 153.78 488.92
  C 149.93 493.30 148.55 496.05 141.91 496.03
  Q 122.98 495.97 104.08 496.00
  Q 91.25 496.02 85.56 494.57
  C 68.26 490.15 55.13 473.46 55.73 455.20
  Q 55.88 450.49 59.02 438.32
  Q 73.74 381.20 88.52 324.10
  Q 89.87 318.91 91.26 317.27
  C 95.61 312.17 103.93 314.74 104.94 321.23
  Q 105.25 323.22 104.23 327.19
  Q 88.51 388.10 72.77 449.01
  C 69.45 461.85 75.79 475.00 88.63 478.91
  Q 92.08 479.96 99.62 479.98
  Q 119.70 480.03 139.78 479.99
  A 1.34 1.31 -69.1 0 0 140.78 479.53
  L 194.67 417.97
  A 0.48 0.47 -42.9 0 0 194.70 417.38
  Q 182.72 401.52 186.61 383.45
  Q 187.10 381.17 193.05 364.53
  Q 200.82 342.81 208.57 321.54
  Q 208.85 320.75 208.02 320.71
  L 156.29 318.17
  Q 155.38 318.12 155.08 318.99
  Q 132.47 383.97 109.60 449.58
  C 107.98 454.23 106.72 460.43 103.00 462.94
  C 98.49 465.99 91.23 462.54 90.94 456.87
  Q 90.83 454.88 92.26 450.77
  Q 115.44 384.11 138.61 317.63
  A 0.60 0.60 0.0 0 0 138.15 316.84
  C 113.88 312.24 97.41 291.25 98.78 266.26
  Q 98.93 263.63 100.53 254.51
  Q 106.85 218.63 112.94 182.72
  Q 113.04 182.17 112.50 182.33
  Z
  M 479.91 120.00
  A 7.92 7.92 0.0 0 0 471.99 112.08
  A 7.92 7.92 0.0 0 0 464.07 120.00
  A 7.92 7.92 0.0 0 0 471.99 127.92
  A 7.92 7.92 0.0 0 0 479.91 120.00
  Z
  M 383.91 360.00
  A 7.92 7.92 0.0 0 0 375.99 352.08
  A 7.92 7.92 0.0 0 0 368.07 360.00
  A 7.92 7.92 0.0 0 0 375.99 367.92
  A 7.92 7.92 0.0 0 0 383.91 360.00
  Z
  M 287.91 424.00
  A 7.92 7.92 0.0 0 0 279.99 416.08
  A 7.92 7.92 0.0 0 0 272.07 424.00
  A 7.92 7.92 0.0 0 0 279.99 431.92
  A 7.92 7.92 0.0 0 0 287.91 424.00
  Z"
/>
<path fill="#000000" d="
  M 199.57 254.62
  A 0.50 0.49 12.8 0 0 199.97 255.25
  Q 224.66 259.15 249.29 263.14
  Q 259.25 264.76 263.69 266.95
  C 275.91 272.98 283.16 287.26 280.79 300.77
  Q 279.94 305.60 275.31 314.61
  Q 254.59 354.96 233.79 395.27
  C 228.79 404.94 214.48 398.02 219.70 387.84
  Q 240.60 347.03 261.69 306.34
  Q 264.60 300.73 264.99 297.10
  C 266.00 287.70 259.86 281.09 250.80 279.60
  Q 219.81 274.50 188.76 269.70
  C 179.69 268.30 180.97 261.23 183.02 254.28
  Q 195.70 211.31 208.34 168.32
  C 209.31 165.01 210.81 162.47 214.23 161.40
  C 218.88 159.94 224.36 163.45 224.45 168.63
  Q 224.48 169.99 223.66 172.80
  Q 211.69 213.81 199.57 254.62
  Z"
/>
<rect fill="#000000" x="464.01" y="208.06" width="15.98" height="287.88" rx="7.93"/>
<rect fill="#000000" x="416.01" y="336.07" width="15.98" height="159.86" rx="7.89"/>
<rect fill="#000000" x="368.02" y="400.08" width="15.96" height="95.84" rx="7.83"/>
<rect fill="#000000" x="320.04" y="432.10" width="15.92" height="63.80" rx="7.75"/>
<rect fill="#000000" x="224.05" y="448.11" width="15.90" height="47.78" rx="7.68"/>
<rect fill="#000000" x="-7.91" y="-15.86" transform="translate(280.00,480.00) rotate(-0.1)" width="15.82" height="31.72" rx="7.52"/>
<circle fill="#000000" cx="183.98" cy="487.99" r="7.90"/>
</svg>
