<?xml version="1.0" encoding="UTF-8" standalone="no"?>
<!DOCTYPE svg PUBLIC "-//W3C//DTD SVG 1.1//EN" "http://www.w3.org/Graphics/SVG/1.1/DTD/svg11.dtd">
<svg xmlns="http://www.w3.org/2000/svg" version="1.1" viewBox="0.00 0.00 500.00 500.00">
<g stroke-width="2.00" fill="none" stroke-linecap="butt">
<path stroke="#722627" vector-effect="non-scaling-stroke" d="
  M 254.57 31.35
  C 177.29 28.81 112.19 86.38 102.66 162.26
  C 101.00 175.48 101.20 188.80 104.21 201.27
  Q 111.04 229.62 124.80 258.60
  Q 138.42 287.27 147.27 302.98
  Q 193.90 385.70 249.72 462.63
  Q 250.02 463.05 250.33 462.63
  Q 300.08 393.92 342.70 320.61
  C 361.18 288.82 378.68 254.88 390.53 220.02
  C 395.50 205.41 398.72 189.97 398.25 174.50
  C 395.88 96.46 332.13 33.90 254.57 31.35"
/>
<path stroke="#722627" vector-effect="non-scaling-stroke" d="
  M 195.28 292.37
  A 0.15 0.15 0.0 0 1 195.49 292.24
  Q 249.71 317.20 304.07 292.47
  Q 304.64 292.21 304.71 292.83
  C 305.02 295.73 304.79 298.14 306.15 300.71
  Q 307.84 303.88 310.25 306.50
  C 319.85 317.00 337.98 312.86 342.60 299.56
  Q 343.72 296.34 343.73 289.68
  Q 343.75 276.27 343.75 262.89
  A 1.46 1.44 -25.1 0 1 344.08 262.00
  C 384.96 213.77 385.78 142.90 342.43 95.71
  C 291.26 40.02 206.12 41.69 155.81 97.51
  C 152.46 101.23 149.27 105.85 146.02 110.06
  Q 145.72 110.45 145.27 110.64
  C 135.06 115.02 132.53 123.67 132.68 133.87
  Q 132.72 136.54 131.89 138.97
  C 117.36 181.58 126.59 227.82 155.92 261.93
  Q 156.25 262.31 156.25 262.82
  Q 156.25 275.69 156.27 288.55
  Q 156.29 296.36 157.47 299.68
  C 161.23 310.19 173.46 315.28 183.69 310.67
  Q 194.56 305.76 195.28 292.37"
/>
<path stroke="#456674" vector-effect="non-scaling-stroke" d="
  M 320.30 109.39
  Q 327.48 109.20 333.95 110.45
  A 0.26 0.26 0.0 0 0 334.21 110.03
  Q 327.75 102.24 319.93 95.82
  Q 319.75 95.67 319.30 95.76"
/>
<path stroke="#456674" vector-effect="non-scaling-stroke" d="
  M 302.80 83.99
  C 254.87 57.68 197.39 70.30 163.62 112.66
  A 0.32 0.32 0.0 0 0 164.05 113.13
  Q 175.47 105.57 187.10 112.93
  Q 187.55 113.22 188.01 112.93
  Q 198.53 106.16 209.50 112.29
  Q 209.97 112.55 210.43 112.29
  Q 244.89 93.23 281.64 108.23
  Q 281.78 108.29 281.91 108.21
  Q 282.04 108.13 282.02 107.96"
/>
<path stroke="#1c4f62" vector-effect="non-scaling-stroke" d="
  M 287.19 129.62
  C 267.34 114.70 240.67 113.18 219.13 125.40
  Q 218.71 125.64 218.71 126.13
  Q 218.79 143.33 218.75 160.56
  C 218.73 174.33 216.06 184.18 205.40 192.65
  C 200.24 196.74 191.91 204.65 196.43 211.95
  Q 207.48 229.79 227.16 237.61
  C 256.38 249.23 288.61 237.22 304.40 210.45
  Q 304.65 210.04 304.64 209.57
  Q 304.48 199.64 296.81 194.20
  Q 284.30 185.33 281.73 171.14
  C 280.86 166.31 281.23 159.95 281.27 154.54
  C 281.34 144.75 282.59 138.17 287.34 130.40
  Q 287.62 129.94 287.19 129.62"
/>
<path stroke="#456674" vector-effect="non-scaling-stroke" d="
  M 184.48 192.31
  L 186.82 188.54"
/>
<path stroke="#6a7175" vector-effect="non-scaling-stroke" d="
  M 186.82 188.54
  L 189.46 185.22"
/>
<path stroke="#6a7175" vector-effect="non-scaling-stroke" d="
  M 197.59 178.99
  Q 203.01 172.98 203.00 166.50
  Q 203.00 148.00 203.00 129.50
  C 203.00 123.52 195.35 123.63 195.32 129.75
  Q 195.25 146.34 195.24 162.93
  C 195.24 165.34 194.25 167.42 193.57 169.68"
/>
<path stroke="#6a7175" vector-effect="non-scaling-stroke" d="
  M 179.45 163.05
  Q 179.91 146.87 179.71 130.75
  C 179.67 127.25 179.14 124.79 174.98 125.39
  Q 171.98 125.83 171.99 128.25
  Q 172.05 145.35 172.02 162.43
  C 172.00 174.75 156.28 175.23 156.26 162.47
  Q 156.24 146.65 156.24 130.83
  C 156.24 123.12 148.51 124.41 148.50 127.99
  Q 148.47 146.94 148.53 165.90
  C 148.55 173.34 152.00 177.55 157.87 181.94
  C 169.02 190.29 171.72 200.20 171.84 214.23
  Q 172.19 257.37 171.95 292.50
  C 171.91 298.49 180.01 298.30 179.71 291.73
  Q 179.58 288.74 179.59 285.75
  Q 179.83 247.53 179.78 209.32
  Q 179.77 200.98 184.48 192.31"
/>
<path stroke="#afd7e8" vector-effect="non-scaling-stroke" d="
  M 186.82 188.54
  Q 184.67 189.93 184.48 192.31"
/>
<path stroke="#6a7175" vector-effect="non-scaling-stroke" d="
  M 313.93 187.88
  Q 312.73 187.96 313.09 188.44
  Q 320.12 197.88 320.15 209.75
  Q 320.25 250.88 320.25 292.01
  C 320.25 298.15 327.89 299.06 327.96 291.56
  Q 328.11 275.89 327.90 260.25"
/>
<path stroke="#6a7175" vector-effect="non-scaling-stroke" d="
  M 327.71 225.97
  Q 328.17 219.17 328.11 211.57
  Q 327.96 192.63 342.32 181.70
  C 348.69 176.85 351.56 172.70 351.50 164.18
  C 351.46 158.01 352.40 150.00 350.46 144.33
  C 341.41 117.92 303.31 119.02 297.60 146.85
  C 296.61 151.68 296.96 158.13 297.02 163.61
  C 297.08 170.01 298.24 174.27 302.29 178.73
  Q 302.40 178.85 302.54 178.90
  Q 303.01 179.07 302.81 178.63"
/>
<path stroke="#456674" vector-effect="non-scaling-stroke" d="
  M 156.22 213.70
  C 156.14 198.56 151.32 197.66 141.58 188.50
  Q 141.06 188.01 141.12 188.73
  Q 143.11 212.68 154.90 233.60
  A 0.50 0.50 0.0 0 0 155.82 233.47
  C 157.13 227.86 156.25 219.58 156.22 213.70"
/>
<path stroke="#456674" vector-effect="non-scaling-stroke" d="
  M 346.09 231.73
  Q 357.02 211.61 358.87 188.75
  Q 358.92 188.16 358.47 188.56
  C 351.50 194.88 343.66 198.72 343.65 210.25
  Q 343.64 220.75 343.83 231.33"
/>
<path stroke="#1c4f62" vector-effect="non-scaling-stroke" d="
  M 302.50 275.52
  Q 303.62 275.78 304.68 274.45"
/>
<path stroke="#456674" vector-effect="non-scaling-stroke" d="
  M 304.68 274.45
  L 304.70 236.34
  Q 304.70 235.46 304.06 236.07
  Q 293.38 246.17 279.41 252.17"
/>
<path stroke="#456674" vector-effect="non-scaling-stroke" d="
  M 261.00 257.51
  Q 260.52 257.16 260.00 257.22
  Q 249.50 258.44 239.04 257.06
  Q 238.67 257.01 238.47 257.15
  Q 238.26 257.30 238.07 257.59"
/>
<path stroke="#456674" vector-effect="non-scaling-stroke" d="
  M 220.17 252.10
  Q 206.86 246.21 196.04 236.24
  Q 195.25 235.51 195.25 236.58
  L 195.25 273.72
  Q 195.25 274.27 195.74 274.53
  Q 248.90 302.97 302.50 275.52"
/>
<path stroke="#61b5d5" vector-effect="non-scaling-stroke" d="
  M 304.68 274.45
  Q 303.06 274.59 302.50 275.52"
/>
</g>
<path fill="#000000" d="
  M 367.09 65.41
  C 396.11 95.22 411.09 131.42 413.62 173.08
  C 414.40 186.02 412.23 199.29 408.74 211.75
  C 400.93 239.62 389.16 266.43 375.74 292.03
  C 343.65 353.27 305.85 411.66 265.60 467.77
  A 0.78 0.78 0.0 0 0 266.24 469.00
  L 366.25 469.00
  A 0.75 0.75 0.0 0 1 367.00 469.75
  L 367.00 483.25
  Q 367.00 484.00 366.25 484.00
  L 133.50 484.00
  A 0.50 0.50 0.0 0 1 133.00 483.50
  L 133.00 469.63
  Q 133.00 469.00 133.63 469.00
  L 233.76 469.00
  A 0.68 0.68 0.0 0 0 234.34 467.97
  Q 233.21 466.08 231.74 464.03
  C 196.19 414.44 165.14 365.97 133.70 309.81
  C 116.06 278.31 100.31 245.15 91.05 210.99
  C 86.79 195.29 85.30 180.76 86.97 164.26
  Q 92.13 113.31 124.01 75.02
  C 186.21 0.31 299.14 -4.37 367.09 65.41
  Z
  M 254.57 31.35
  C 177.29 28.81 112.19 86.38 102.66 162.26
  C 101.00 175.48 101.20 188.80 104.21 201.27
  Q 111.04 229.62 124.80 258.60
  Q 138.42 287.27 147.27 302.98
  Q 193.90 385.70 249.72 462.63
  Q 250.02 463.05 250.33 462.63
  Q 300.08 393.92 342.70 320.61
  C 361.18 288.82 378.68 254.88 390.53 220.02
  C 395.50 205.41 398.72 189.97 398.25 174.50
  C 395.88 96.46 332.13 33.90 254.57 31.35
  Z"
/>
<path fill="#e44b4d" d="
  M 254.57 31.35
  C 332.13 33.90 395.88 96.46 398.25 174.50
  C 398.72 189.97 395.50 205.41 390.53 220.02
  C 378.68 254.88 361.18 288.82 342.70 320.61
  Q 300.08 393.92 250.33 462.63
  Q 250.02 463.05 249.72 462.63
  Q 193.90 385.70 147.27 302.98
  Q 138.42 287.27 124.80 258.60
  Q 111.04 229.62 104.21 201.27
  C 101.20 188.80 101.00 175.48 102.66 162.26
  C 112.19 86.38 177.29 28.81 254.57 31.35
  Z
  M 195.28 292.37
  A 0.15 0.15 0.0 0 1 195.49 292.24
  Q 249.71 317.20 304.07 292.47
  Q 304.64 292.21 304.71 292.83
  C 305.02 295.73 304.79 298.14 306.15 300.71
  Q 307.84 303.88 310.25 306.50
  C 319.85 317.00 337.98 312.86 342.60 299.56
  Q 343.72 296.34 343.73 289.68
  Q 343.75 276.27 343.75 262.89
  A 1.46 1.44 -25.1 0 1 344.08 262.00
  C 384.96 213.77 385.78 142.90 342.43 95.71
  C 291.26 40.02 206.12 41.69 155.81 97.51
  C 152.46 101.23 149.27 105.85 146.02 110.06
  Q 145.72 110.45 145.27 110.64
  C 135.06 115.02 132.53 123.67 132.68 133.87
  Q 132.72 136.54 131.89 138.97
  C 117.36 181.58 126.59 227.82 155.92 261.93
  Q 156.25 262.31 156.25 262.82
  Q 156.25 275.69 156.27 288.55
  Q 156.29 296.36 157.47 299.68
  C 161.23 310.19 173.46 315.28 183.69 310.67
  Q 194.56 305.76 195.28 292.37
  Z"
/>
<path fill="#000000" d="
  M 195.28 292.37
  Q 194.56 305.76 183.69 310.67
  C 173.46 315.28 161.23 310.19 157.47 299.68
  Q 156.29 296.36 156.27 288.55
  Q 156.25 275.69 156.25 262.82
  Q 156.25 262.31 155.92 261.93
  C 126.59 227.82 117.36 181.58 131.89 138.97
  Q 132.72 136.54 132.68 133.87
  C 132.53 123.67 135.06 115.02 145.27 110.64
  Q 145.72 110.45 146.02 110.06
  C 149.27 105.85 152.46 101.23 155.81 97.51
  C 206.12 41.69 291.26 40.02 342.43 95.71
  C 385.78 142.90 384.96 213.77 344.08 262.00
  A 1.46 1.44 -25.1 0 0 343.75 262.89
  Q 343.75 276.27 343.73 289.68
  Q 343.72 296.34 342.60 299.56
  C 337.98 312.86 319.85 317.00 310.25 306.50
  Q 307.84 303.88 306.15 300.71
  C 304.79 298.14 305.02 295.73 304.71 292.83
  Q 304.64 292.21 304.07 292.47
  Q 249.71 317.20 195.49 292.24
  A 0.15 0.15 0.0 0 0 195.28 292.37
  Z
  M 282.02 107.96
  L 297.49 117.86
  A 1.36 1.36 0.0 0 0 298.99 117.83
  Q 308.58 111.28 320.30 109.39
  Q 327.48 109.20 333.95 110.45
  A 0.26 0.26 0.0 0 0 334.21 110.03
  Q 327.75 102.24 319.93 95.82
  Q 319.75 95.67 319.30 95.76
  Q 319.26 95.62 319.25 95.48
  Q 319.23 95.23 319.04 95.07
  Q 311.72 88.51 302.80 83.99
  C 254.87 57.68 197.39 70.30 163.62 112.66
  A 0.32 0.32 0.0 0 0 164.05 113.13
  Q 175.47 105.57 187.10 112.93
  Q 187.55 113.22 188.01 112.93
  Q 198.53 106.16 209.50 112.29
  Q 209.97 112.55 210.43 112.29
  Q 244.89 93.23 281.64 108.23
  Q 281.78 108.29 281.91 108.21
  Q 282.04 108.13 282.02 107.96
  Z
  M 287.19 129.62
  C 267.34 114.70 240.67 113.18 219.13 125.40
  Q 218.71 125.64 218.71 126.13
  Q 218.79 143.33 218.75 160.56
  C 218.73 174.33 216.06 184.18 205.40 192.65
  C 200.24 196.74 191.91 204.65 196.43 211.95
  Q 207.48 229.79 227.16 237.61
  C 256.38 249.23 288.61 237.22 304.40 210.45
  Q 304.65 210.04 304.64 209.57
  Q 304.48 199.64 296.81 194.20
  Q 284.30 185.33 281.73 171.14
  C 280.86 166.31 281.23 159.95 281.27 154.54
  C 281.34 144.75 282.59 138.17 287.34 130.40
  Q 287.62 129.94 287.19 129.62
  Z
  M 184.48 192.31
  L 186.82 188.54
  L 189.46 185.22
  L 197.59 178.99
  Q 203.01 172.98 203.00 166.50
  Q 203.00 148.00 203.00 129.50
  C 203.00 123.52 195.35 123.63 195.32 129.75
  Q 195.25 146.34 195.24 162.93
  C 195.24 165.34 194.25 167.42 193.57 169.68
  Q 181.45 175.55 179.45 163.05
  Q 179.91 146.87 179.71 130.75
  C 179.67 127.25 179.14 124.79 174.98 125.39
  Q 171.98 125.83 171.99 128.25
  Q 172.05 145.35 172.02 162.43
  C 172.00 174.75 156.28 175.23 156.26 162.47
  Q 156.24 146.65 156.24 130.83
  C 156.24 123.12 148.51 124.41 148.50 127.99
  Q 148.47 146.94 148.53 165.90
  C 148.55 173.34 152.00 177.55 157.87 181.94
  C 169.02 190.29 171.72 200.20 171.84 214.23
  Q 172.19 257.37 171.95 292.50
  C 171.91 298.49 180.01 298.30 179.71 291.73
  Q 179.58 288.74 179.59 285.75
  Q 179.83 247.53 179.78 209.32
  Q 179.77 200.98 184.48 192.31
  Z
  M 302.81 178.63
  C 304.57 181.63 309.99 184.99 312.29 187.22
  Q 312.86 187.78 313.93 187.88
  Q 312.73 187.96 313.09 188.44
  Q 320.12 197.88 320.15 209.75
  Q 320.25 250.88 320.25 292.01
  C 320.25 298.15 327.89 299.06 327.96 291.56
  Q 328.11 275.89 327.90 260.25
  C 327.59 249.65 328.83 238.08 327.71 225.97
  Q 328.17 219.17 328.11 211.57
  Q 327.96 192.63 342.32 181.70
  C 348.69 176.85 351.56 172.70 351.50 164.18
  C 351.46 158.01 352.40 150.00 350.46 144.33
  C 341.41 117.92 303.31 119.02 297.60 146.85
  C 296.61 151.68 296.96 158.13 297.02 163.61
  C 297.08 170.01 298.24 174.27 302.29 178.73
  Q 302.40 178.85 302.54 178.90
  Q 303.01 179.07 302.81 178.63
  Z
  M 156.22 213.70
  C 156.14 198.56 151.32 197.66 141.58 188.50
  Q 141.06 188.01 141.12 188.73
  Q 143.11 212.68 154.90 233.60
  A 0.50 0.50 0.0 0 0 155.82 233.47
  C 157.13 227.86 156.25 219.58 156.22 213.70
  Z
  M 343.83 231.33
  L 343.75 234.68
  A 0.58 0.58 0.0 0 0 344.87 234.90
  L 346.09 231.73
  Q 357.02 211.61 358.87 188.75
  Q 358.92 188.16 358.47 188.56
  C 351.50 194.88 343.66 198.72 343.65 210.25
  Q 343.64 220.75 343.83 231.33
  Z
  M 302.50 275.52
  Q 303.62 275.78 304.68 274.45
  L 304.70 236.34
  Q 304.70 235.46 304.06 236.07
  Q 293.38 246.17 279.41 252.17
  L 261.17 257.04
  Q 261.03 257.08 261.00 257.23
  Q 260.98 257.35 261.00 257.51
  Q 260.52 257.16 260.00 257.22
  Q 249.50 258.44 239.04 257.06
  Q 238.67 257.01 238.47 257.15
  Q 238.26 257.30 238.07 257.59
  Q 237.98 256.97 237.00 256.75
  Q 231.49 255.53 220.17 252.10
  Q 206.86 246.21 196.04 236.24
  Q 195.25 235.51 195.25 236.58
  L 195.25 273.72
  Q 195.25 274.27 195.74 274.53
  Q 248.90 302.97 302.50 275.52
  Z"
/>
<path fill="#8acce7" d="
  M 302.80 83.99
  C 297.66 90.03 313.47 95.01 318.00 96.27
  Q 318.64 96.45 319.30 95.76
  Q 319.75 95.67 319.93 95.82
  Q 327.75 102.24 334.21 110.03
  A 0.26 0.26 0.0 0 1 333.95 110.45
  Q 327.48 109.20 320.30 109.39
  Q 321.03 108.64 321.20 108.18
  Q 321.40 107.66 320.44 107.53
  Q 317.02 107.07 313.46 107.29
  A 1.79 1.72 -30.7 0 1 312.48 107.06
  Q 308.63 104.79 304.33 105.40
  C 296.73 106.50 291.72 101.41 283.72 105.48
  Q 281.93 106.39 282.02 107.96
  Q 282.04 108.13 281.91 108.21
  Q 281.78 108.29 281.64 108.23
  Q 244.89 93.23 210.43 112.29
  Q 209.97 112.55 209.50 112.29
  Q 198.53 106.16 188.01 112.93
  Q 187.55 113.22 187.10 112.93
  Q 175.47 105.57 164.05 113.13
  A 0.32 0.32 0.0 0 1 163.62 112.66
  C 197.39 70.30 254.87 57.68 302.80 83.99
  Z"
/>
<path fill="#379ec3" d="
  M 219.13 125.40
  C 240.67 113.18 267.34 114.70 287.19 129.62
  Q 287.62 129.94 287.34 130.40
  C 282.59 138.17 281.34 144.75 281.27 154.54
  C 281.23 159.95 280.86 166.31 281.73 171.14
  Q 284.30 185.33 296.81 194.20
  Q 304.48 199.64 304.64 209.57
  Q 304.65 210.04 304.40 210.45
  C 288.61 237.22 256.38 249.23 227.16 237.61
  Q 207.48 229.79 196.43 211.95
  C 191.91 204.65 200.24 196.74 205.40 192.65
  C 216.06 184.18 218.73 174.33 218.75 160.56
  Q 218.79 143.33 218.71 126.13
  Q 218.71 125.64 219.13 125.40
  Z"
/>
<path fill="#d3e1e9" d="
  M 179.45 163.05
  Q 176.55 168.69 182.68 176.05
  Q 183.00 176.44 183.48 176.60
  Q 186.32 177.57 188.35 179.73
  Q 188.75 180.15 188.69 180.73
  Q 188.45 183.34 189.46 185.22
  L 186.82 188.54
  Q 184.67 189.93 184.48 192.31
  Q 179.77 200.98 179.78 209.32
  Q 179.83 247.53 179.59 285.75
  Q 179.58 288.74 179.71 291.73
  C 180.01 298.30 171.91 298.49 171.95 292.50
  Q 172.19 257.37 171.84 214.23
  C 171.72 200.20 169.02 190.29 157.87 181.94
  C 152.00 177.55 148.55 173.34 148.53 165.90
  Q 148.47 146.94 148.50 127.99
  C 148.51 124.41 156.24 123.12 156.24 130.83
  Q 156.24 146.65 156.26 162.47
  C 156.28 175.23 172.00 174.75 172.02 162.43
  Q 172.05 145.35 171.99 128.25
  Q 171.98 125.83 174.98 125.39
  C 179.14 124.79 179.67 127.25 179.71 130.75
  Q 179.91 146.87 179.45 163.05
  Z"
/>
<path fill="#d3e1e9" d="
  M 327.71 225.97
  Q 325.70 230.88 325.87 237.07
  Q 326.30 252.09 326.75 259.25
  Q 326.80 260.03 327.90 260.25
  Q 328.11 275.89 327.96 291.56
  C 327.89 299.06 320.25 298.15 320.25 292.01
  Q 320.25 250.88 320.15 209.75
  Q 320.12 197.88 313.09 188.44
  Q 312.73 187.96 313.93 187.88
  C 318.70 182.02 308.70 173.88 302.81 178.63
  Q 303.01 179.07 302.54 178.90
  Q 302.40 178.85 302.29 178.73
  C 298.24 174.27 297.08 170.01 297.02 163.61
  C 296.96 158.13 296.61 151.68 297.60 146.85
  C 303.31 119.02 341.41 117.92 350.46 144.33
  C 352.40 150.00 351.46 158.01 351.50 164.18
  C 351.56 172.70 348.69 176.85 342.32 181.70
  Q 327.96 192.63 328.11 211.57
  Q 328.17 219.17 327.71 225.97
  Z"
/>
<path fill="#d3e1e9" d="
  M 197.59 178.99
  Q 198.17 173.40 193.57 169.68
  C 194.25 167.42 195.24 165.34 195.24 162.93
  Q 195.25 146.34 195.32 129.75
  C 195.35 123.63 203.00 123.52 203.00 129.50
  Q 203.00 148.00 203.00 166.50
  Q 203.01 172.98 197.59 178.99
  Z"
/>
<path fill="#8acce7" d="
  M 141.58 188.50
  C 151.32 197.66 156.14 198.56 156.22 213.70
  C 156.25 219.58 157.13 227.86 155.82 233.47
  A 0.50 0.50 0.0 0 1 154.90 233.60
  Q 143.11 212.68 141.12 188.73
  Q 141.06 188.01 141.58 188.50
  Z"
/>
<path fill="#8acce7" d="
  M 346.09 231.73
  Q 344.75 230.54 343.83 231.33
  Q 343.64 220.75 343.65 210.25
  C 343.66 198.72 351.50 194.88 358.47 188.56
  Q 358.92 188.16 358.87 188.75
  Q 357.02 211.61 346.09 231.73
  Z"
/>
<path fill="#8acce7" d="
  M 186.82 188.54
  L 184.48 192.31
  Q 184.67 189.93 186.82 188.54
  Z"
/>
<path fill="#8acce7" d="
  M 220.17 252.10
  Q 223.63 257.54 232.49 258.48
  Q 235.48 258.80 238.07 257.59
  Q 238.26 257.30 238.47 257.15
  Q 238.67 257.01 239.04 257.06
  Q 249.50 258.44 260.00 257.22
  Q 260.52 257.16 261.00 257.51
  C 265.70 259.84 273.74 256.90 278.61 254.51
  Q 279.37 254.13 279.49 253.59
  Q 279.62 253.01 279.41 252.17
  Q 293.38 246.17 304.06 236.07
  Q 304.70 235.46 304.70 236.34
  L 304.68 274.45
  Q 303.06 274.59 302.50 275.52
  Q 248.90 302.97 195.74 274.53
  Q 195.25 274.27 195.25 273.72
  L 195.25 236.58
  Q 195.25 235.51 196.04 236.24
  Q 206.86 246.21 220.17 252.10
  Z"
/>
<path fill="#379ec3" d="
  M 304.68 274.45
  Q 303.62 275.78 302.50 275.52
  Q 303.06 274.59 304.68 274.45
  Z"
/>
</svg>
