<?xml version="1.0" encoding="UTF-8" standalone="no"?>
<!DOCTYPE svg PUBLIC "-//W3C//DTD SVG 1.1//EN" "http://www.w3.org/Graphics/SVG/1.1/DTD/svg11.dtd">
<svg xmlns="http://www.w3.org/2000/svg" version="1.1" viewBox="0.00 0.00 512.00 512.00">
<g stroke-width="2.00" fill="none" stroke-linecap="butt">
<path stroke="#385673" vector-effect="non-scaling-stroke" d="
  M 53.41 21.28
  C 28.33 23.74 32.02 44.96 32.00 63.66
  A 0.34 0.33 -90.0 0 0 32.33 64.00
  L 95.30 64.00
  Q 95.94 64.00 95.95 63.35
  L 95.98 53.15"
/>
<path stroke="#415e7a" vector-effect="non-scaling-stroke" d="
  M 95.98 53.15
  L 95.99 21.71
  A 0.42 0.42 0.0 0 0 95.57 21.29
  L 53.41 21.28"
/>
<path stroke="#79b4ed" vector-effect="non-scaling-stroke" d="
  M 95.98 53.15
  Q 86.54 53.43 83.74 53.24
  C 66.47 52.06 53.71 38.68 53.41 21.28"
/>
<path stroke="#415e7a" vector-effect="non-scaling-stroke" d="
  M 351.96 53.28
  Q 351.97 49.56 352.02 45.58
  C 352.19 30.92 343.76 21.26 328.50 21.25
  Q 228.65 21.25 128.30 21.25"
/>
<path stroke="#385673" vector-effect="non-scaling-stroke" d="
  M 128.30 21.25
  L 117.74 21.27
  Q 117.25 21.27 117.25 21.76
  L 117.25 63.50
  A 0.50 0.50 0.0 0 0 117.75 64.00
  L 351.30 64.00
  Q 351.89 64.00 351.90 63.41
  L 351.96 53.28"
/>
<path stroke="#79b4ed" vector-effect="non-scaling-stroke" d="
  M 128.30 21.25
  C 126.61 40.36 131.84 53.29 152.94 53.27
  Q 252.45 53.21 351.96 53.28"
/>
<path stroke="#777679" vector-effect="non-scaling-stroke" d="
  M 222.19 373.27
  L 218.39 363.22
  Q 218.21 362.75 217.71 362.75
  Q 157.88 362.76 98.07 362.73
  Q 78.85 362.72 69.56 348.49
  C 58.79 331.99 64.53 310.37 82.47 301.68
  Q 88.53 298.75 94.76 298.75
  Q 156.24 298.76 217.79 298.74
  Q 218.31 298.74 218.47 298.26
  C 235.15 248.19 283.24 217.76 335.68 225.18
  C 340.69 225.88 346.17 227.32 351.39 228.74
  Q 352.00 228.91 352.00 228.28
  L 352.00 85.76
  A 0.50 0.50 0.0 0 0 351.50 85.26
  L 53.26 85.26"
/>
<path stroke="#6d6c73" vector-effect="non-scaling-stroke" d="
  M 53.26 85.26
  L 32.57 85.26
  A 0.57 0.56 -0.0 0 0 32.00 85.82
  Q 32.01 221.63 31.99 357.50
  C 31.99 369.16 34.56 378.52 46.12 382.56
  Q 50.24 384.00 59.06 384.00
  Q 143.00 384.01 227.03 384.00
  Q 227.66 383.99 227.37 383.43
  L 222.19 373.27"
/>
<path stroke="#e4e1ec" vector-effect="non-scaling-stroke" d="
  M 53.26 85.26
  Q 53.25 210.21 53.25 335.08
  C 53.25 337.11 53.56 339.50 53.53 341.76
  C 53.32 356.48 63.68 368.16 76.89 372.01
  Q 81.21 373.27 88.25 373.27
  Q 155.05 373.22 222.19 373.27"
/>
<path stroke="#59737e" vector-effect="non-scaling-stroke" d="
  M 405.23 330.67
  A 85.24 85.24 0.0 0 0 319.99 245.43
  A 85.24 85.24 0.0 0 0 234.75 330.67
  A 85.24 85.24 0.0 0 0 319.99 415.91
  A 85.24 85.24 0.0 0 0 405.23 330.67"
/>
<path stroke="#385673" vector-effect="non-scaling-stroke" d="
  M 89.32 321.76
  Q 84.38 327.82 85.80 333.40
  C 86.91 337.80 91.15 341.24 95.75 341.25
  Q 106.21 341.27 116.71 341.24
  Q 117.23 341.24 117.23 340.72
  L 117.23 330.94"
/>
<path stroke="#415e7a" vector-effect="non-scaling-stroke" d="
  M 117.23 330.94
  L 117.23 320.69
  Q 117.23 320.32 116.86 320.28
  Q 102.37 318.86 89.32 321.76"
/>
<path stroke="#79b4ed" vector-effect="non-scaling-stroke" d="
  M 117.23 330.94
  Q 111.89 330.68 106.56 330.65
  Q 96.03 330.59 89.32 321.76"
/>
<path stroke="#6d6c73" vector-effect="non-scaling-stroke" d="
  M 213.51 320.28
  A 0.27 0.27 0.0 0 0 213.24 320.01
  L 139.02 320.01
  A 0.27 0.27 0.0 0 0 138.75 320.28
  L 138.75 340.98
  A 0.27 0.27 0.0 0 0 139.02 341.25
  L 213.24 341.25
  A 0.27 0.27 0.0 0 0 213.51 340.98
  L 213.51 320.28"
/>
<path stroke="#212e39" vector-effect="non-scaling-stroke" d="
  M 432.73 429.13
  L 418.50 443.36
  A 0.57 0.57 0.0 0 0 418.50 444.16
  L 461.06 486.73
  A 11.04 10.43 45.0 0 0 476.24 487.16
  L 476.53 486.87
  A 11.04 10.43 45.0 0 0 476.10 471.69
  L 433.53 429.13
  A 0.57 0.57 0.0 0 0 432.73 429.13"
/>
<path stroke="#777679" vector-effect="non-scaling-stroke" d="
  M 245.18 127.84
  A 10.57 10.57 0.0 0 0 234.61 117.27
  L 74.69 117.27
  A 10.57 10.57 0.0 0 0 64.12 127.84
  L 64.12 128.14
  A 10.57 10.57 0.0 0 0 74.69 138.71
  L 234.61 138.71
  A 10.57 10.57 0.0 0 0 245.18 128.14
  L 245.18 127.84"
/>
<path stroke="#777679" vector-effect="non-scaling-stroke" d="
  M 245.16 170.50
  A 10.48 10.48 0.0 0 0 234.68 160.02
  L 74.60 160.02
  A 10.48 10.48 0.0 0 0 64.12 170.50
  L 64.12 170.80
  A 10.48 10.48 0.0 0 0 74.60 181.28
  L 234.68 181.28
  A 10.48 10.48 0.0 0 0 245.16 170.80
  L 245.16 170.50"
/>
<path stroke="#777679" vector-effect="non-scaling-stroke" d="
  M 191.86 213.12
  A 10.45 10.45 0.0 0 0 181.41 202.67
  L 74.59 202.67
  A 10.45 10.45 0.0 0 0 64.14 213.12
  L 64.14 213.52
  A 10.45 10.45 0.0 0 0 74.59 223.97
  L 181.41 223.97
  A 10.45 10.45 0.0 0 0 191.86 213.52
  L 191.86 213.12"
/>
</g>
<path fill="#000000" d="
  M 51.30 0.00
  L 332.81 0.00
  C 351.70 1.55 367.51 13.91 372.05 32.45
  Q 373.23 37.27 373.24 46.78
  Q 373.27 142.01 373.24 237.25
  A 1.42 1.41 15.2 0 0 373.94 238.47
  C 425.76 269.21 442.34 335.96 410.17 387.43
  Q 408.70 389.79 402.87 397.76
  Q 402.56 398.19 402.93 398.56
  L 417.54 413.17
  A 0.72 0.71 43.6 0 0 418.57 413.15
  C 425.38 405.83 432.18 397.68 442.15 407.60
  Q 466.66 431.97 491.10 456.41
  C 508.53 473.85 501.82 503.14 477.89 510.25
  C 463.91 514.40 453.32 509.19 443.53 499.40
  Q 420.59 476.47 397.67 453.55
  C 386.87 442.75 394.57 437.08 402.60 429.01
  A 0.57 0.57 0.0 0 0 402.60 428.20
  L 387.66 413.56
  Q 387.36 413.26 387.03 413.52
  C 343.51 447.78 283.65 444.46 244.17 405.60
  A 1.23 1.23 0.0 0 0 243.30 405.24
  Q 152.22 405.26 61.22 405.25
  Q 47.60 405.24 41.93 403.71
  C 27.62 399.85 16.02 388.09 12.15 373.73
  Q 10.76 368.59 10.76 358.50
  Q 10.74 199.63 10.75 40.75
  C 10.75 36.67 12.09 30.77 13.85 26.72
  Q 24.26 2.75 51.30 0.00
  Z
  M 53.41 21.28
  C 28.33 23.74 32.02 44.96 32.00 63.66
  A 0.34 0.33 -90.0 0 0 32.33 64.00
  L 95.30 64.00
  Q 95.94 64.00 95.95 63.35
  L 95.98 53.15
  L 95.99 21.71
  A 0.42 0.42 0.0 0 0 95.57 21.29
  L 53.41 21.28
  Z
  M 351.96 53.28
  Q 351.97 49.56 352.02 45.58
  C 352.19 30.92 343.76 21.26 328.50 21.25
  Q 228.65 21.25 128.30 21.25
  L 117.74 21.27
  Q 117.25 21.27 117.25 21.76
  L 117.25 63.50
  A 0.50 0.50 0.0 0 0 117.75 64.00
  L 351.30 64.00
  Q 351.89 64.00 351.90 63.41
  L 351.96 53.28
  Z
  M 222.19 373.27
  L 218.39 363.22
  Q 218.21 362.75 217.71 362.75
  Q 157.88 362.76 98.07 362.73
  Q 78.85 362.72 69.56 348.49
  C 58.79 331.99 64.53 310.37 82.47 301.68
  Q 88.53 298.75 94.76 298.75
  Q 156.24 298.76 217.79 298.74
  Q 218.31 298.74 218.47 298.26
  C 235.15 248.19 283.24 217.76 335.68 225.18
  C 340.69 225.88 346.17 227.32 351.39 228.74
  Q 352.00 228.91 352.00 228.28
  L 352.00 85.76
  A 0.50 0.50 0.0 0 0 351.50 85.26
  L 53.26 85.26
  L 32.57 85.26
  A 0.57 0.56 -0.0 0 0 32.00 85.82
  Q 32.01 221.63 31.99 357.50
  C 31.99 369.16 34.56 378.52 46.12 382.56
  Q 50.24 384.00 59.06 384.00
  Q 143.00 384.01 227.03 384.00
  Q 227.66 383.99 227.37 383.43
  L 222.19 373.27
  Z
  M 405.23 330.67
  A 85.24 85.24 0.0 0 0 319.99 245.43
  A 85.24 85.24 0.0 0 0 234.75 330.67
  A 85.24 85.24 0.0 0 0 319.99 415.91
  A 85.24 85.24 0.0 0 0 405.23 330.67
  Z
  M 89.32 321.76
  Q 84.38 327.82 85.80 333.40
  C 86.91 337.80 91.15 341.24 95.75 341.25
  Q 106.21 341.27 116.71 341.24
  Q 117.23 341.24 117.23 340.72
  L 117.23 330.94
  L 117.23 320.69
  Q 117.23 320.32 116.86 320.28
  Q 102.37 318.86 89.32 321.76
  Z
  M 213.51 320.28
  A 0.27 0.27 0.0 0 0 213.24 320.01
  L 139.02 320.01
  A 0.27 0.27 0.0 0 0 138.75 320.28
  L 138.75 340.98
  A 0.27 0.27 0.0 0 0 139.02 341.25
  L 213.24 341.25
  A 0.27 0.27 0.0 0 0 213.51 340.98
  L 213.51 320.28
  Z
  M 432.73 429.13
  L 418.50 443.36
  A 0.57 0.57 0.0 0 0 418.50 444.16
  L 461.06 486.73
  A 11.04 10.43 45.0 0 0 476.24 487.16
  L 476.53 486.87
  A 11.04 10.43 45.0 0 0 476.10 471.69
  L 433.53 429.13
  A 0.57 0.57 0.0 0 0 432.73 429.13
  Z"
/>
<path fill="#82bcf4" d="
  M 95.98 53.15
  Q 86.54 53.43 83.74 53.24
  C 66.47 52.06 53.71 38.68 53.41 21.28
  L 95.57 21.29
  A 0.42 0.42 0.0 0 1 95.99 21.71
  L 95.98 53.15
  Z"
/>
<path fill="#6fabe6" d="
  M 128.30 21.25
  C 126.61 40.36 131.84 53.29 152.94 53.27
  Q 252.45 53.21 351.96 53.28
  L 351.90 63.41
  Q 351.89 64.00 351.30 64.00
  L 117.75 64.00
  A 0.50 0.50 0.0 0 1 117.25 63.50
  L 117.25 21.76
  Q 117.25 21.27 117.74 21.27
  L 128.30 21.25
  Z"
/>
<path fill="#82bcf4" d="
  M 128.30 21.25
  Q 228.65 21.25 328.50 21.25
  C 343.76 21.26 352.19 30.92 352.02 45.58
  Q 351.97 49.56 351.96 53.28
  Q 252.45 53.21 152.94 53.27
  C 131.84 53.29 126.61 40.36 128.30 21.25
  Z"
/>
<path fill="#6fabe6" d="
  M 53.41 21.28
  C 53.71 38.68 66.47 52.06 83.74 53.24
  Q 86.54 53.43 95.98 53.15
  L 95.95 63.35
  Q 95.94 64.00 95.30 64.00
  L 32.33 64.00
  A 0.34 0.33 -90.0 0 1 32.00 63.66
  C 32.02 44.96 28.33 23.74 53.41 21.28
  Z"
/>
<path fill="#dad7e5" d="
  M 53.26 85.26
  Q 53.25 210.21 53.25 335.08
  C 53.25 337.11 53.56 339.50 53.53 341.76
  C 53.32 356.48 63.68 368.16 76.89 372.01
  Q 81.21 373.27 88.25 373.27
  Q 155.05 373.22 222.19 373.27
  L 227.37 383.43
  Q 227.66 383.99 227.03 384.00
  Q 143.00 384.01 59.06 384.00
  Q 50.24 384.00 46.12 382.56
  C 34.56 378.52 31.99 369.16 31.99 357.50
  Q 32.01 221.63 32.00 85.82
  A 0.57 0.56 0.0 0 1 32.57 85.26
  L 53.26 85.26
  Z"
/>
<path fill="#edebf2" d="
  M 53.26 85.26
  L 351.50 85.26
  A 0.50 0.50 0.0 0 1 352.00 85.76
  L 352.00 228.28
  Q 352.00 228.91 351.39 228.74
  C 346.17 227.32 340.69 225.88 335.68 225.18
  C 283.24 217.76 235.15 248.19 218.47 298.26
  Q 218.31 298.74 217.79 298.74
  Q 156.24 298.76 94.76 298.75
  Q 88.53 298.75 82.47 301.68
  C 64.53 310.37 58.79 331.99 69.56 348.49
  Q 78.85 362.72 98.07 362.73
  Q 157.88 362.76 217.71 362.75
  Q 218.21 362.75 218.39 363.22
  L 222.19 373.27
  Q 155.05 373.22 88.25 373.27
  Q 81.21 373.27 76.89 372.01
  C 63.68 368.16 53.32 356.48 53.53 341.76
  C 53.56 339.50 53.25 337.11 53.25 335.08
  Q 53.25 210.21 53.26 85.26
  Z
  M 245.18 127.84
  A 10.57 10.57 0.0 0 0 234.61 117.27
  L 74.69 117.27
  A 10.57 10.57 0.0 0 0 64.12 127.84
  L 64.12 128.14
  A 10.57 10.57 0.0 0 0 74.69 138.71
  L 234.61 138.71
  A 10.57 10.57 0.0 0 0 245.18 128.14
  L 245.18 127.84
  Z
  M 245.16 170.50
  A 10.48 10.48 0.0 0 0 234.68 160.02
  L 74.60 160.02
  A 10.48 10.48 0.0 0 0 64.12 170.50
  L 64.12 170.80
  A 10.48 10.48 0.0 0 0 74.60 181.28
  L 234.68 181.28
  A 10.48 10.48 0.0 0 0 245.16 170.80
  L 245.16 170.50
  Z
  M 191.86 213.12
  A 10.45 10.45 0.0 0 0 181.41 202.67
  L 74.59 202.67
  A 10.45 10.45 0.0 0 0 64.14 213.12
  L 64.14 213.52
  A 10.45 10.45 0.0 0 0 74.59 223.97
  L 181.41 223.97
  A 10.45 10.45 0.0 0 0 191.86 213.52
  L 191.86 213.12
  Z"
/>
<rect fill="#000000" x="64.12" y="117.27" width="181.06" height="21.44" rx="10.57"/>
<rect fill="#000000" x="64.12" y="160.02" width="181.04" height="21.26" rx="10.48"/>
<rect fill="#000000" x="64.14" y="202.67" width="127.72" height="21.30" rx="10.45"/>
<circle fill="#b2e5fb" cx="319.99" cy="330.67" r="85.24"/>
<path fill="#82bcf4" d="
  M 117.23 330.94
  Q 111.89 330.68 106.56 330.65
  Q 96.03 330.59 89.32 321.76
  Q 102.37 318.86 116.86 320.28
  Q 117.23 320.32 117.23 320.69
  L 117.23 330.94
  Z"
/>
<rect fill="#dad7e5" x="138.75" y="320.01" width="74.76" height="21.24" rx="0.27"/>
<path fill="#6fabe6" d="
  M 89.32 321.76
  Q 96.03 330.59 106.56 330.65
  Q 111.89 330.68 117.23 330.94
  L 117.23 340.72
  Q 117.23 341.24 116.71 341.24
  Q 106.21 341.27 95.75 341.25
  C 91.15 341.24 86.91 337.80 85.80 333.40
  Q 84.38 327.82 89.32 321.76
  Z"
/>
<path fill="#425b72" d="
  M 432.73 429.13
  A 0.57 0.57 0.0 0 1 433.53 429.13
  L 476.10 471.69
  A 11.04 10.43 45.0 0 1 476.53 486.87
  L 476.24 487.16
  A 11.04 10.43 45.0 0 1 461.06 486.73
  L 418.50 444.16
  A 0.57 0.57 0.0 0 1 418.50 443.36
  L 432.73 429.13
  Z"
/>
</svg>
